<svg id="diagram-new" class="fbd-diagram" xmlns="http://www.w3.org/2000/svg" width="100%" viewBox="0 0 125 274" preserveAspectRatio="xMidYMid meet" font-size="16px" data-fbd="{&quot;numStrings&quot;:6,&quot;numFrets&quot;:9,&quot;inlays&quot;:[3,5,7,9,&quot;12:double&quot;],&quot;grid&quot;:[[null,null,null,null,null,null,null,null],[null,&quot;4&quot;,null,null,null,null,null,null],[null,null,null,&quot;3&quot;,&quot;6&quot;,null,null,null],[null,&quot;5&quot;,{&quot;label&quot;:&quot;1&quot;,&quot;dot&quot;:true,&quot;class&quot;:&quot;fbd-note-optional&quot;},&quot;4&quot;,null,null,null,null],[null,null,null,null,&quot;7&quot;,null,null,null],[null,&quot;6&quot;,&quot;2&quot;,&quot;5&quot;,&quot;1&quot;,null,null,null],[null,null,null,null,null,null,null,null],[null,{&quot;label&quot;:&quot;7&quot;,&quot;dot&quot;:true,&quot;class&quot;:&quot;fbd-note-root&quot;},&quot;3&quot;,{&quot;dot&quot;:true,&quot;label&quot;:&quot;6&quot;},{&quot;label&quot;:&quot;2&quot;,&quot;dot&quot;:true},null,null,null],[null,&quot;1&quot;,&quot;4&quot;,null,null,null,null,null],[null,null,null,&quot;7&quot;,&quot;3&quot;,null,null,null],[null,&quot;R&quot;,null,&quot;♭7&quot;,&quot;♭3&quot;,null,null,null]]}"><style type="text/css">/* <![CDATA[ */
 .fbd-grid { stroke: #999; } .fbd-grid-background { fill: #fff; } .fbd-diagram { font-family: "Helvetica Neue",Helvetica,Arial,sans-serif; font-weight: 500; } .fbd-inlays { fill: #f5f5f5; stroke: #ddd; } .fbd-positions text { fill: #333; text-anchor: middle; } .fbd-positions circle + text { fill: #fff; } .fbd-dots { fill: #000; stroke: none; } .fbd-note-footer { font-size: 75%; text-anchor: middle; fill: #000; } .fbd-note-root circle { fill: green; } .fbd-note-optional circle { fill: #fff; stroke: #999; stroke-dasharray: 5,2; } .fbd-note-optional circle + text { fill: #666; } .fbd-note-chromatic circle { fill: #fcc; } .fbd-note-chromatic circle + text { fill: #000; }
/* ]]> */
</style><g class="fbd-grid"><rect class="fbd-grid-background" x="10" y="10" width="105" height="225"></rect><path class="fbd-frets" d=" M10 10 h105 M10 35 h105 M10 60 h105 M10 85 h105 M10 110 h105 M10 135 h105 M10 160 h105 M10 185 h105 M10 210 h105 M10 235 h105"></path><path class="fbd-strings" d=" M10 10 v225 M31 10 v225 M52 10 v225 M73 10 v225 M94 10 v225 M115 10 v225"></path></g><g class="fbd-inlays"><circle cx="63" cy="73" r="4.75"></circle><circle cx="63" cy="123" r="4.75"></circle><circle cx="63" cy="173" r="4.75"></circle><circle cx="63" cy="223" r="4.75"></circle><circle cx="42" cy="298" r="4.75"></circle><circle cx="84" cy="298" r="4.75"></circle></g><g class="fbd-positions"><g class="fbd-pos-1-1"><text x="10" y="28.5">4</text></g><g class="fbd-pos-3-2"><text x="52" y="53.5">3</text></g><g class="fbd-pos-4-2"><text x="73" y="53.5">6</text></g><g class="fbd-pos-1-3"><text x="10" y="78.5">5</text></g><g class="fbd-pos-2-3 fbd-note-optional"><circle cx="31" cy="73" r="9.5"></circle><text x="31" y="78.5">1</text></g><g class="fbd-pos-3-3"><text x="52" y="78.5">4</text></g><g class="fbd-pos-4-4"><text x="73" y="103.5">7</text></g><g class="fbd-pos-1-5"><text x="10" y="128.5">6</text></g><g class="fbd-pos-2-5"><text x="31" y="128.5">2</text></g><g class="fbd-pos-3-5"><text x="52" y="128.5">5</text></g><g class="fbd-pos-4-5"><text x="73" y="128.5">1</text></g><g class="fbd-pos-1-7 fbd-note-root"><circle cx="10" cy="173" r="9.5"></circle><text x="10" y="178.5">7</text></g><g class="fbd-pos-2-7"><text x="31" y="178.5">3</text></g><g class="fbd-pos-3-7"><circle cx="52" cy="173" r="9.5"></circle><text x="52" y="178.5">6</text></g><g class="fbd-pos-4-7"><circle cx="73" cy="173" r="9.5"></circle><text x="73" y="178.5">2</text></g><g class="fbd-pos-1-8"><text x="10" y="203.5">1</text></g><g class="fbd-pos-2-8"><text x="31" y="203.5">4</text></g><g class="fbd-pos-3-9"><text x="52" y="228.5">7</text></g><g class="fbd-pos-4-9"><text x="73" y="228.5">3</text></g><g class="fbd-pos-1-10"><text x="10" y="253.5">R</text></g><g class="fbd-pos-3-10"><text font-size="70%" x="52" y="252.5">♭7</text></g><g class="fbd-pos-4-10"><text font-size="70%" x="73" y="252.5">♭3</text></g></g></svg>