<svg id="diagram-new" class="fbd-diagram" xmlns="http://www.w3.org/2000/svg" width="100%" viewBox="0 0 125 149" preserveAspectRatio="xMidYMid meet" font-size="16px" data-fbd="{&quot;numStrings&quot;:6,&quot;numFrets&quot;:5,&quot;grid&quot;:[[null,null,&quot;&quot;,null,null,null,null,null],[null,null,{&quot;dot&quot;:true,&quot;label&quot;:&quot;S&quot;},null,null,null,null,null],[null,null,{&quot;dot&quot;:true,&quot;label&quot;:&quot;T&quot;},null,null,{&quot;dot&quot;:true,&quot;class&quot;:&quot;fbd-note-optional&quot;,&quot;label&quot;:&quot;S&quot;},null,null],[null,null,null,null,null,{&quot;dot&quot;:true,&quot;class&quot;:&quot;fbd-note-optional&quot;,&quot;label&quot;:&quot;T&quot;},null,null],[null,null,null,null,null,null,null,null],[null,{&quot;dot&quot;:true},null,null,{&quot;dot&quot;:true,&quot;class&quot;:&quot;fbd-note-optional&quot;},null,null,null]]}"><style type="text/css">/* <![CDATA[ */
 .fbd-grid { stroke: #999; } .fbd-grid-background { fill: #fff; } .fbd-diagram { font-family: "Helvetica Neue",Helvetica,Arial,sans-serif; font-weight: 500; } .fbd-inlays { fill: #f5f5f5; stroke: #ddd; } .fbd-positions text { fill: #333; text-anchor: middle; } .fbd-positions circle + text { fill: #fff; } .fbd-dots { fill: #000; stroke: none; } .fbd-note-footer { font-size: 75%; text-anchor: middle; fill: #000; } .fbd-note-root circle { fill: green; } .fbd-note-optional circle { fill: #fff; stroke: #999; stroke-dasharray: 5,2; } .fbd-note-optional circle + text { fill: #666; } .fbd-note-chromatic circle { fill: #fcc; } .fbd-note-chromatic circle + text { fill: #000; }
/* ]]> */
</style><g class="fbd-grid"><rect class="fbd-grid-background" x="10" y="10" width="105" height="125"></rect><path class="fbd-frets" d=" M10 10 h105 M10 35 h105 M10 60 h105 M10 85 h105 M10 110 h105 M10 135 h105"></path><path class="fbd-strings" d=" M10 10 v125 M31 10 v125 M52 10 v125 M73 10 v125 M94 10 v125 M115 10 v125"></path></g><g class="fbd-positions"><g class="fbd-pos-2-1"><circle cx="31" cy="23" r="9.5"></circle><text x="31" y="28.5">S</text></g><g class="fbd-pos-2-2"><circle cx="31" cy="48" r="9.5"></circle><text x="31" y="53.5">T</text></g><g class="fbd-pos-5-2 fbd-note-optional"><circle cx="94" cy="48" r="9.5"></circle><text x="94" y="53.5">S</text></g><g class="fbd-pos-5-3 fbd-note-optional"><circle cx="94" cy="73" r="9.5"></circle><text x="94" y="78.5">T</text></g><g class="fbd-pos-1-5"><circle cx="10" cy="123" r="9.5"></circle></g><g class="fbd-pos-4-5 fbd-note-optional"><circle cx="73" cy="123" r="9.5"></circle></g></g></svg>