<svg id="diagram-new" class="fbd-diagram" xmlns="http://www.w3.org/2000/svg" width="100%" viewBox="0 0 83 449" preserveAspectRatio="xMidYMid meet" font-size="16px" data-fbd="{&quot;numStrings&quot;:4,&quot;numFrets&quot;:17,&quot;grid&quot;:[[null,null,null,null,null,null],[null,null,null,{&quot;label&quot;:&quot;4&quot;,&quot;dot&quot;:true},null,null],[null,&quot;&quot;,{&quot;label&quot;:&quot;2&quot;,&quot;dot&quot;:true},null,{&quot;label&quot;:&quot;7&quot;,&quot;dot&quot;:true},null],[null,null,null,&quot;5&quot;,&quot;1&quot;,null],[null,&quot;&quot;,&quot;3&quot;,null,null,null],[null,&quot;1&quot;,&quot;4&quot;,&quot;6&quot;,&quot;2&quot;,null],[null],[null,{&quot;label&quot;:&quot;2&quot;,&quot;dot&quot;:true},{&quot;label&quot;:&quot;5&quot;,&quot;dot&quot;:true,&quot;class&quot;:&quot;fbd-note-root&quot;},{&quot;label&quot;:&quot;7&quot;,&quot;dot&quot;:true},&quot;3&quot;],[null,null,null,&quot;1&quot;,{&quot;label&quot;:&quot;4&quot;,&quot;dot&quot;:true}],[null,&quot;3&quot;,&quot;6&quot;],[null,{&quot;label&quot;:&quot;4&quot;,&quot;dot&quot;:true},null,{&quot;label&quot;:&quot;2&quot;,&quot;dot&quot;:true},{&quot;label&quot;:&quot;5&quot;,&quot;dot&quot;:true,&quot;class&quot;:&quot;fbd-note-root&quot;}],[null,null,{&quot;label&quot;:&quot;7&quot;,&quot;dot&quot;:true}],[null,{&quot;label&quot;:&quot;5&quot;,&quot;dot&quot;:true,&quot;class&quot;:&quot;fbd-note-optional&quot;},&quot;1&quot;,&quot;3&quot;,&quot;6&quot;],[null,null,null,{&quot;label&quot;:&quot;4&quot;,&quot;dot&quot;:true},null,null],[null,&quot;6&quot;,{&quot;label&quot;:&quot;2&quot;,&quot;dot&quot;:true},null,{&quot;label&quot;:&quot;7&quot;,&quot;dot&quot;:true}],[null,null,null,&quot;5&quot;,&quot;1&quot;],[null,&quot;7&quot;,&quot;3&quot;],[null,&quot;1&quot;,&quot;4&quot;,&quot;6&quot;,&quot;2&quot;]]}"><style type="text/css">/* <![CDATA[ */
 .fbd-grid { stroke: #999; } .fbd-grid-background { fill: #fff; } .fbd-diagram { font-family: "Helvetica Neue",Helvetica,Arial,sans-serif; font-weight: 500; } .fbd-inlays { fill: #f5f5f5; stroke: #ddd; } .fbd-positions text { fill: #333; text-anchor: middle; } .fbd-positions circle + text { fill: #fff; } .fbd-dots { fill: #000; stroke: none; } .fbd-note-footer { font-size: 75%; text-anchor: middle; fill: #000; } .fbd-note-root circle { fill: green; } .fbd-note-optional circle { fill: #fff; stroke: #999; stroke-dasharray: 5,2; } .fbd-note-optional circle + text { fill: #666; } .fbd-note-chromatic circle { fill: #fcc; } .fbd-note-chromatic circle + text { fill: #000; }
/* ]]> */
</style><g class="fbd-grid"><rect class="fbd-grid-background" x="10" y="10" width="63" height="425"></rect><path class="fbd-frets" d=" M10 10 h63 M10 35 h63 M10 60 h63 M10 85 h63 M10 110 h63 M10 135 h63 M10 160 h63 M10 185 h63 M10 210 h63 M10 235 h63 M10 260 h63 M10 285 h63 M10 310 h63 M10 335 h63 M10 360 h63 M10 385 h63 M10 410 h63 M10 435 h63"></path><path class="fbd-strings" d=" M10 10 v425 M31 10 v425 M52 10 v425 M73 10 v425"></path></g><g class="fbd-positions"><g class="fbd-pos-3-1"><circle cx="52" cy="23" r="9.5"></circle><text x="52" y="28.5">4</text></g><g class="fbd-pos-2-2"><circle cx="31" cy="48" r="9.5"></circle><text x="31" y="53.5">2</text></g><g class="fbd-pos-4-2"><circle cx="73" cy="48" r="9.5"></circle><text x="73" y="53.5">7</text></g><g class="fbd-pos-3-3"><text x="52" y="78.5">5</text></g><g class="fbd-pos-4-3"><text x="73" y="78.5">1</text></g><g class="fbd-pos-2-4"><text x="31" y="103.5">3</text></g><g class="fbd-pos-1-5"><text x="10" y="128.5">1</text></g><g class="fbd-pos-2-5"><text x="31" y="128.5">4</text></g><g class="fbd-pos-3-5"><text x="52" y="128.5">6</text></g><g class="fbd-pos-4-5"><text x="73" y="128.5">2</text></g><g class="fbd-pos-1-7"><circle cx="10" cy="173" r="9.5"></circle><text x="10" y="178.5">2</text></g><g class="fbd-pos-2-7 fbd-note-root"><circle cx="31" cy="173" r="9.5"></circle><text x="31" y="178.5">5</text></g><g class="fbd-pos-3-7"><circle cx="52" cy="173" r="9.5"></circle><text x="52" y="178.5">7</text></g><g class="fbd-pos-4-7"><text x="73" y="178.5">3</text></g><g class="fbd-pos-3-8"><text x="52" y="203.5">1</text></g><g class="fbd-pos-4-8"><circle cx="73" cy="198" r="9.5"></circle><text x="73" y="203.5">4</text></g><g class="fbd-pos-1-9"><text x="10" y="228.5">3</text></g><g class="fbd-pos-2-9"><text x="31" y="228.5">6</text></g><g class="fbd-pos-1-10"><circle cx="10" cy="248" r="9.5"></circle><text x="10" y="253.5">4</text></g><g class="fbd-pos-3-10"><circle cx="52" cy="248" r="9.5"></circle><text x="52" y="253.5">2</text></g><g class="fbd-pos-4-10 fbd-note-root"><circle cx="73" cy="248" r="9.5"></circle><text x="73" y="253.5">5</text></g><g class="fbd-pos-2-11"><circle cx="31" cy="273" r="9.5"></circle><text x="31" y="278.5">7</text></g><g class="fbd-pos-1-12 fbd-note-optional"><circle cx="10" cy="298" r="9.5"></circle><text x="10" y="303.5">5</text></g><g class="fbd-pos-2-12"><text x="31" y="303.5">1</text></g><g class="fbd-pos-3-12"><text x="52" y="303.5">3</text></g><g class="fbd-pos-4-12"><text x="73" y="303.5">6</text></g><g class="fbd-pos-3-13"><circle cx="52" cy="323" r="9.5"></circle><text x="52" y="328.5">4</text></g><g class="fbd-pos-1-14"><text x="10" y="353.5">6</text></g><g class="fbd-pos-2-14"><circle cx="31" cy="348" r="9.5"></circle><text x="31" y="353.5">2</text></g><g class="fbd-pos-4-14"><circle cx="73" cy="348" r="9.5"></circle><text x="73" y="353.5">7</text></g><g class="fbd-pos-3-15"><text x="52" y="378.5">5</text></g><g class="fbd-pos-4-15"><text x="73" y="378.5">1</text></g><g class="fbd-pos-1-16"><text x="10" y="403.5">7</text></g><g class="fbd-pos-2-16"><text x="31" y="403.5">3</text></g><g class="fbd-pos-1-17"><text x="10" y="428.5">1</text></g><g class="fbd-pos-2-17"><text x="31" y="428.5">4</text></g><g class="fbd-pos-3-17"><text x="52" y="428.5">6</text></g><g class="fbd-pos-4-17"><text x="73" y="428.5">2</text></g></g></svg>