<?xml version="1.0" encoding="utf-8"?>
<svg viewBox="0 0 32 32" width="32px" height="32px" preserveAspectRatio="xMidYMid slice" xmlns="http://www.w3.org/2000/svg" xmlns:bx="https://boxy-svg.com">
  <defs>
    <bx:grid x="508.092" y="510.48" width="500" height="500.025"/>
  </defs>
  <rect x="-35.805" y="0.233" width="75.953" height="31.98" style="fill: rgb(255, 255, 255); stroke: rgb(0, 0, 0); stroke-width: 0px;"/>
  <rect x="-28.112" width="5.511" height="5.144" style="stroke: rgb(0, 0, 0); vector-effect: non-scaling-stroke; stroke-width: 0px; fill: rgb(166, 43, 12);" y="1.459"/>
  <rect x="-21.784" width="9.233" height="5.144" style="stroke: rgb(0, 0, 0); vector-effect: non-scaling-stroke; stroke-width: 0px; fill: rgb(166, 43, 12);" y="1.459"/>
  <rect x="-11.733" width="9.233" height="5.144" style="stroke: rgb(0, 0, 0); vector-effect: non-scaling-stroke; stroke-width: 0px; fill: rgb(166, 43, 12);" y="1.459"/>
  <rect x="-1.68" width="9.233" height="5.144" style="stroke: rgb(0, 0, 0); vector-effect: non-scaling-stroke; stroke-width: 0px; fill: rgb(166, 43, 12);" y="1.459"/>
  <rect x="8.371" width="9.233" height="5.144" style="stroke: rgb(0, 0, 0); vector-effect: non-scaling-stroke; stroke-width: 0px; fill: rgb(166, 43, 12);" y="1.459"/>
  <rect x="8.371" width="9.233" height="5.144" style="stroke: rgb(0, 0, 0); vector-effect: non-scaling-stroke; stroke-width: 0px; fill: rgb(166, 43, 12);" y="1.459"/>
  <rect x="18.422" width="9.233" height="5.144" style="stroke: rgb(0, 0, 0); vector-effect: non-scaling-stroke; stroke-width: 0px; fill: rgb(166, 43, 12);" y="1.459"/>
  <rect x="28.475" width="8.071" height="5.144" style="stroke: rgb(0, 0, 0); vector-effect: non-scaling-stroke; stroke-width: 0px; fill: rgb(166, 43, 12);" y="1.459"/>
  <rect x="-28.266" y="7.732" width="10.357" height="5.144" style="stroke: rgb(0, 0, 0); vector-effect: non-scaling-stroke; stroke-width: 0px; fill: rgb(166, 43, 12);"/>
  <rect x="-17.089" y="7.732" width="9.233" height="5.144" style="stroke: rgb(0, 0, 0); vector-effect: non-scaling-stroke; stroke-width: 0px; fill: rgb(166, 43, 12);"/>
  <rect x="-7.039" y="7.732" width="9.233" height="5.144" style="stroke: rgb(0, 0, 0); vector-effect: non-scaling-stroke; stroke-width: 0px; fill: rgb(166, 43, 12);"/>
  <rect x="3.012" y="7.732" width="9.233" height="5.144" style="stroke: rgb(0, 0, 0); vector-effect: non-scaling-stroke; stroke-width: 0px; fill: rgb(166, 43, 12);"/>
  <rect x="13.064" y="7.732" width="9.233" height="5.144" style="stroke: rgb(0, 0, 0); vector-effect: non-scaling-stroke; stroke-width: 0px; fill: rgb(166, 43, 12);"/>
  <rect x="23.115" y="7.732" width="9.233" height="5.144" style="stroke: rgb(0, 0, 0); vector-effect: non-scaling-stroke; stroke-width: 0px; fill: rgb(166, 43, 12);"/>
  <rect x="33.167" y="7.732" width="2.98" height="5.144" style="stroke: rgb(0, 0, 0); vector-effect: non-scaling-stroke; stroke-width: 0px; fill: rgb(166, 43, 12);"/>
  <rect x="-28.339" y="13.836" width="5.684" height="5.144" style="stroke: rgb(0, 0, 0); vector-effect: non-scaling-stroke; stroke-width: 0px; fill: rgb(166, 43, 12);"/>
  <rect x="-21.837" y="13.836" width="9.233" height="5.144" style="stroke: rgb(0, 0, 0); vector-effect: non-scaling-stroke; stroke-width: 0px; fill: rgb(166, 43, 12);"/>
  <rect x="-11.786" y="13.836" width="9.233" height="5.144" style="stroke: rgb(0, 0, 0); vector-effect: non-scaling-stroke; stroke-width: 0px; fill: rgb(166, 43, 12);"/>
  <rect x="-1.735" y="13.836" width="9.233" height="5.144" style="stroke: rgb(0, 0, 0); vector-effect: non-scaling-stroke; stroke-width: 0px; fill: rgb(166, 43, 12);"/>
  <rect x="8.318" y="13.836" width="9.233" height="5.144" style="stroke: rgb(0, 0, 0); vector-effect: non-scaling-stroke; stroke-width: 0px; fill: rgb(166, 43, 12);"/>
  <rect x="8.318" y="13.836" width="9.233" height="5.144" style="stroke: rgb(0, 0, 0); vector-effect: non-scaling-stroke; stroke-width: 0px; fill: rgb(166, 43, 12);"/>
  <rect x="18.368" y="13.836" width="9.233" height="5.144" style="stroke: rgb(0, 0, 0); vector-effect: non-scaling-stroke; stroke-width: 0px; fill: rgb(166, 43, 12);"/>
  <rect x="28.42" y="13.836" width="7.852" height="5.144" style="stroke: rgb(0, 0, 0); vector-effect: non-scaling-stroke; stroke-width: 0px; fill: rgb(166, 43, 12);"/>
  <rect x="-28.192" y="20.109" width="10.23" height="5.144" style="stroke: rgb(0, 0, 0); vector-effect: non-scaling-stroke; stroke-width: 0px; fill: rgb(166, 43, 12);"/>
  <rect x="-17.144" y="20.109" width="9.233" height="5.144" style="stroke: rgb(0, 0, 0); vector-effect: non-scaling-stroke; stroke-width: 0px; fill: rgb(166, 43, 12);"/>
  <rect x="-7.093" y="20.109" width="9.233" height="5.144" style="stroke: rgb(0, 0, 0); vector-effect: non-scaling-stroke; stroke-width: 0px; fill: rgb(166, 43, 12);"/>
  <rect x="2.959" y="20.109" width="9.233" height="5.144" style="stroke: rgb(0, 0, 0); vector-effect: non-scaling-stroke; stroke-width: 0px; fill: rgb(166, 43, 12);"/>
  <rect x="13.01" y="20.109" width="9.233" height="5.144" style="stroke: rgb(0, 0, 0); vector-effect: non-scaling-stroke; stroke-width: 0px; fill: rgb(166, 43, 12);"/>
  <rect x="23.062" y="20.109" width="9.233" height="5.144" style="stroke: rgb(0, 0, 0); vector-effect: non-scaling-stroke; stroke-width: 0px; fill: rgb(166, 43, 12);"/>
  <rect x="33.113" y="20.109" width="3.083" height="5.144" style="stroke: rgb(0, 0, 0); vector-effect: non-scaling-stroke; stroke-width: 0px; fill: rgb(166, 43, 12);"/>
  <rect x="-27.216" y="26.164" width="4.66" height="5.144" style="stroke: rgb(0, 0, 0); vector-effect: non-scaling-stroke; stroke-width: 0px; fill: rgb(166, 43, 12);"/>
  <rect x="-21.741" y="26.164" width="9.233" height="5.144" style="stroke: rgb(0, 0, 0); vector-effect: non-scaling-stroke; stroke-width: 0px; fill: rgb(166, 43, 12);"/>
  <rect x="-11.689" y="26.164" width="9.233" height="5.144" style="stroke: rgb(0, 0, 0); vector-effect: non-scaling-stroke; stroke-width: 0px; fill: rgb(166, 43, 12);"/>
  <rect x="-1.638" y="26.164" width="9.233" height="5.144" style="stroke: rgb(0, 0, 0); vector-effect: non-scaling-stroke; stroke-width: 0px; fill: rgb(166, 43, 12);"/>
  <rect x="8.414" y="26.164" width="9.233" height="5.144" style="stroke: rgb(0, 0, 0); vector-effect: non-scaling-stroke; stroke-width: 0px; fill: rgb(166, 43, 12);"/>
  <rect x="8.414" y="26.164" width="9.233" height="5.144" style="stroke: rgb(0, 0, 0); vector-effect: non-scaling-stroke; stroke-width: 0px; fill: rgb(166, 43, 12);"/>
  <rect x="18.466" y="26.164" width="9.233" height="5.144" style="stroke: rgb(0, 0, 0); vector-effect: non-scaling-stroke; stroke-width: 0px; fill: rgb(166, 43, 12);"/>
  <rect x="28.517" y="26.164" width="6.811" height="5.144" style="stroke: rgb(0, 0, 0); vector-effect: non-scaling-stroke; stroke-width: 0px; fill: rgb(166, 43, 12);"/>
  <circle style="stroke: rgb(0, 0, 0); vector-effect: non-scaling-stroke; stroke-width: 0px; fill: rgb(255, 255, 255);" cx="-18.852" cy="16.404" r="1.476" transform="matrix(1.03757, 0, 0, 1.016717, 2.363269, -0.207519)"/>
  <circle style="stroke: rgb(0, 0, 0); vector-effect: non-scaling-stroke; stroke-width: 0px; fill: rgb(255, 255, 255);" cx="0.538" cy="16.489" r="1.476" transform="matrix(1.03757, 0, 0, 1.016717, 2.363269, -0.207519)"/>
  <circle style="stroke: rgb(0, 0, 0); vector-effect: non-scaling-stroke; stroke-width: 0px; fill: rgb(255, 255, 255);" cx="24.657" cy="10.326" r="1.476" transform="matrix(1.03757, 0, 0, 1.016717, 2.363269, -0.207519)"/>
  <circle style="stroke: rgb(0, 0, 0); vector-effect: non-scaling-stroke; stroke-width: 0px; fill: rgb(255, 255, 255);" cx="24.482" cy="22.634" r="1.476" transform="matrix(1.03757, 0, 0, 1.016717, 2.363269, -0.207519)"/>
</svg>