<?xml version="1.0" encoding="utf-8"?>
<svg viewBox="0 0 96 96" width="96px" height="96px" preserveAspectRatio="xMidYMid slice" xmlns="http://www.w3.org/2000/svg" xmlns:bx="https://boxy-svg.com">
  <defs>
    <bx:grid x="508.092" y="510.48" width="500" height="500.025"/>
  </defs>
  <rect x="-16.644" y="23.307" width="121.095" height="52.034" style="fill: rgb(255, 255, 255); stroke: rgb(0, 0, 0); stroke-width: 0px;"/>
  <rect x="-4.379" width="8.786" height="8.368" style="fill: rgb(166, 43, 12); stroke: rgb(0, 0, 0);" y="25.302"/>
  <rect x="5.711" width="14.721" height="8.368" style="fill: rgb(166, 43, 12); stroke: rgb(0, 0, 0);" y="25.302"/>
  <rect x="21.735" width="14.721" height="8.368" style="fill: rgb(166, 43, 12); stroke: rgb(0, 0, 0);" y="25.302"/>
  <rect x="37.762" width="14.721" height="8.368" style="fill: rgb(166, 43, 12); stroke: rgb(0, 0, 0);" y="25.302"/>
  <rect x="53.787" width="14.721" height="8.368" style="fill: rgb(166, 43, 12); stroke: rgb(0, 0, 0);" y="25.302"/>
  <rect x="53.787" width="14.721" height="8.368" style="fill: rgb(166, 43, 12); stroke: rgb(0, 0, 0);" y="25.302"/>
  <rect x="69.812" width="14.721" height="8.368" style="fill: rgb(166, 43, 12); stroke: rgb(0, 0, 0);" y="25.302"/>
  <rect x="85.838" width="12.869" height="8.368" style="fill: rgb(166, 43, 12); stroke: rgb(0, 0, 0);" y="25.302"/>
  <rect x="-4.625" y="35.509" width="16.512" height="8.368" style="fill: rgb(166, 43, 12); stroke: rgb(0, 0, 0);"/>
  <rect x="13.193" y="35.509" width="14.721" height="8.368" style="fill: rgb(166, 43, 12); stroke: rgb(0, 0, 0);"/>
  <rect x="29.218" y="35.509" width="14.721" height="8.368" style="fill: rgb(166, 43, 12); stroke: rgb(0, 0, 0);"/>
  <rect x="45.243" y="35.509" width="14.721" height="8.368" style="fill: rgb(166, 43, 12); stroke: rgb(0, 0, 0);"/>
  <rect x="61.269" y="35.509" width="14.721" height="8.368" style="fill: rgb(166, 43, 12); stroke: rgb(0, 0, 0);"/>
  <rect x="77.294" y="35.509" width="14.721" height="8.368" style="fill: rgb(166, 43, 12); stroke: rgb(0, 0, 0);"/>
  <rect x="93.319" y="35.509" width="4.75" height="8.368" style="fill: rgb(166, 43, 12); stroke: rgb(0, 0, 0);"/>
  <rect x="-4.74" y="45.44" width="9.061" height="8.368" style="fill: rgb(166, 43, 12); stroke: rgb(0, 0, 0);"/>
  <rect x="5.625" y="45.44" width="14.721" height="8.368" style="fill: rgb(166, 43, 12); stroke: rgb(0, 0, 0);"/>
  <rect x="21.65" y="45.44" width="14.721" height="8.368" style="fill: rgb(166, 43, 12); stroke: rgb(0, 0, 0);"/>
  <rect x="37.675" y="45.44" width="14.721" height="8.368" style="fill: rgb(166, 43, 12); stroke: rgb(0, 0, 0);"/>
  <rect x="53.701" y="45.44" width="14.721" height="8.368" style="fill: rgb(166, 43, 12); stroke: rgb(0, 0, 0);"/>
  <rect x="53.701" y="45.44" width="14.721" height="8.368" style="fill: rgb(166, 43, 12); stroke: rgb(0, 0, 0);"/>
  <rect x="69.725" y="45.44" width="14.721" height="8.368" style="fill: rgb(166, 43, 12); stroke: rgb(0, 0, 0);"/>
  <rect x="85.752" y="45.44" width="12.518" height="8.368" style="fill: rgb(166, 43, 12); stroke: rgb(0, 0, 0);"/>
  <rect x="-4.506" y="55.646" width="16.309" height="8.368" style="fill: rgb(166, 43, 12); stroke: rgb(0, 0, 0);"/>
  <rect x="13.108" y="55.646" width="14.721" height="8.368" style="fill: rgb(166, 43, 12); stroke: rgb(0, 0, 0);"/>
  <rect x="29.133" y="55.646" width="14.721" height="8.368" style="fill: rgb(166, 43, 12); stroke: rgb(0, 0, 0);"/>
  <rect x="45.158" y="55.646" width="14.721" height="8.368" style="fill: rgb(166, 43, 12); stroke: rgb(0, 0, 0);"/>
  <rect x="61.183" y="55.646" width="14.721" height="8.368" style="fill: rgb(166, 43, 12); stroke: rgb(0, 0, 0);"/>
  <rect x="77.21" y="55.646" width="14.721" height="8.368" style="fill: rgb(166, 43, 12); stroke: rgb(0, 0, 0);"/>
  <rect x="93.234" y="55.646" width="4.917" height="8.368" style="fill: rgb(166, 43, 12); stroke: rgb(0, 0, 0);"/>
  <rect x="-2.952" y="65.498" width="7.429" height="8.368" style="fill: rgb(166, 43, 12); stroke: rgb(0, 0, 0);"/>
  <rect x="5.78" y="65.498" width="14.721" height="8.368" style="fill: rgb(166, 43, 12); stroke: rgb(0, 0, 0);"/>
  <rect x="21.806" y="65.498" width="14.721" height="8.368" style="fill: rgb(166, 43, 12); stroke: rgb(0, 0, 0);"/>
  <rect x="37.831" y="65.498" width="14.721" height="8.368" style="fill: rgb(166, 43, 12); stroke: rgb(0, 0, 0);"/>
  <rect x="53.856" y="65.498" width="14.721" height="8.368" style="fill: rgb(166, 43, 12); stroke: rgb(0, 0, 0);"/>
  <rect x="53.856" y="65.498" width="14.721" height="8.368" style="fill: rgb(166, 43, 12); stroke: rgb(0, 0, 0);"/>
  <rect x="69.882" y="65.498" width="14.721" height="8.368" style="fill: rgb(166, 43, 12); stroke: rgb(0, 0, 0);"/>
  <rect x="85.907" y="65.498" width="10.86" height="8.368" style="fill: rgb(166, 43, 12); stroke: rgb(0, 0, 0);"/>
  <circle style="stroke: rgb(0, 0, 0); fill: rgb(255, 255, 255);" cx="13.024" cy="49.725" r="2.441"/>
  <circle style="stroke: rgb(0, 0, 0); fill: rgb(255, 255, 255);" cx="45.098" cy="49.865" r="2.441"/>
  <circle style="stroke: rgb(0, 0, 0); fill: rgb(255, 255, 255);" cx="84.997" cy="39.67" r="2.441"/>
  <circle style="stroke: rgb(0, 0, 0); fill: rgb(255, 255, 255);" cx="84.708" cy="60.03" r="2.441"/>
</svg>