<?xml version="1.0" encoding="utf-8"?>
<svg viewBox="274 -13 512 512" width="512px" height="512px" xmlns="http://www.w3.org/2000/svg">
  <rect width="508" height="508.026" rx="74.375" ry="74.375" style="fill: rgb(255, 255, 255); stroke: rgb(0, 0, 0); stroke-width: 3px;" x="2" y="2" transform="matrix(1, 0, 0, 1, 274.148438, -12.506495)"/>
  <g transform="matrix(1, 0, 0, 1, -2.796509, -26.58153)">
    <rect x="295.207" width="40.657" height="38.724" style="fill: rgb(216, 216, 216); stroke: rgb(0, 0, 0);" y="227.731"/>
    <rect x="341.9" width="68.126" height="38.724" style="fill: rgb(216, 216, 216); stroke: rgb(0, 0, 0);" y="227.731"/>
    <rect x="416.063" width="68.126" height="38.724" style="fill: rgb(216, 216, 216); stroke: rgb(0, 0, 0);" y="227.731"/>
    <rect x="490.228" width="68.126" height="38.724" style="fill: rgb(216, 216, 216); stroke: rgb(0, 0, 0);" y="227.731"/>
    <rect x="564.391" width="68.126" height="38.724" style="fill: rgb(216, 216, 216); stroke: rgb(0, 0, 0);" y="227.731"/>
    <rect x="638.551" width="68.126" height="38.724" style="fill: rgb(216, 216, 216); stroke: rgb(0, 0, 0);" y="227.731"/>
    <rect x="712.714" width="59.554" height="38.724" style="fill: rgb(216, 216, 216); stroke: rgb(0, 0, 0);" y="227.731"/>
    <rect x="294.07" y="274.964" width="76.418" height="38.724" style="fill: rgb(216, 216, 216); stroke: rgb(0, 0, 0);"/>
    <rect x="376.526" y="274.964" width="68.126" height="38.724" style="fill: rgb(216, 216, 216); stroke: rgb(0, 0, 0);"/>
    <rect x="450.687" y="274.964" width="68.126" height="38.724" style="fill: rgb(216, 216, 216); stroke: rgb(0, 0, 0);"/>
    <rect x="524.847" y="274.964" width="68.126" height="38.724" style="fill: rgb(216, 216, 216); stroke: rgb(0, 0, 0);"/>
    <rect x="599.012" y="274.964" width="68.126" height="38.724" style="fill: rgb(216, 216, 216); stroke: rgb(0, 0, 0);"/>
    <rect x="673.174" y="274.964" width="68.126" height="38.724" style="fill: rgb(216, 216, 216); stroke: rgb(0, 0, 0);"/>
    <rect x="747.336" y="274.964" width="21.984" height="38.724" style="fill: rgb(216, 216, 216); stroke: rgb(0, 0, 0);"/>
    <rect x="293.534" y="320.923" width="41.932" height="38.724" style="fill: rgb(216, 216, 216); stroke: rgb(0, 0, 0);"/>
    <rect x="341.503" y="320.923" width="68.126" height="38.724" style="fill: rgb(216, 216, 216); stroke: rgb(0, 0, 0);"/>
    <rect x="415.664" y="320.923" width="68.126" height="38.724" style="fill: rgb(216, 216, 216); stroke: rgb(0, 0, 0);"/>
    <rect x="489.826" y="320.923" width="68.126" height="38.724" style="fill: rgb(216, 216, 216); stroke: rgb(0, 0, 0);"/>
    <rect x="563.991" y="320.923" width="68.126" height="38.724" style="fill: rgb(216, 216, 216); stroke: rgb(0, 0, 0);"/>
    <rect x="638.15" y="320.923" width="68.126" height="38.724" style="fill: rgb(216, 216, 216); stroke: rgb(0, 0, 0);"/>
    <rect x="712.313" y="320.923" width="57.931" height="38.724" style="fill: rgb(216, 216, 216); stroke: rgb(0, 0, 0);"/>
    <rect x="294.62" y="368.154" width="75.472" height="38.724" style="fill: rgb(216, 216, 216); stroke: rgb(0, 0, 0);"/>
    <rect x="376.128" y="368.154" width="68.126" height="38.724" style="fill: rgb(216, 216, 216); stroke: rgb(0, 0, 0);"/>
    <rect x="450.29" y="368.154" width="68.126" height="38.724" style="fill: rgb(216, 216, 216); stroke: rgb(0, 0, 0);"/>
    <rect x="524.453" y="368.154" width="68.126" height="38.724" style="fill: rgb(216, 216, 216); stroke: rgb(0, 0, 0);"/>
    <rect x="598.616" y="368.154" width="68.126" height="38.724" style="fill: rgb(216, 216, 216); stroke: rgb(0, 0, 0);"/>
    <rect x="672.779" y="368.154" width="68.126" height="38.724" style="fill: rgb(216, 216, 216); stroke: rgb(0, 0, 0);"/>
    <rect x="746.938" y="368.154" width="22.752" height="38.724" style="fill: rgb(216, 216, 216); stroke: rgb(0, 0, 0);"/>
    <rect x="293.325" y="413.749" width="42.864" height="38.724" style="fill: rgb(216, 216, 216); stroke: rgb(0, 0, 0);"/>
    <rect x="342.223" y="413.749" width="68.126" height="38.724" style="fill: rgb(216, 216, 216); stroke: rgb(0, 0, 0);"/>
    <rect x="416.387" y="413.749" width="68.126" height="38.724" style="fill: rgb(216, 216, 216); stroke: rgb(0, 0, 0);"/>
    <rect x="490.55" y="413.749" width="68.126" height="38.724" style="fill: rgb(216, 216, 216); stroke: rgb(0, 0, 0);"/>
    <rect x="564.71" y="413.749" width="68.126" height="38.724" style="fill: rgb(216, 216, 216); stroke: rgb(0, 0, 0);"/>
    <rect x="638.872" y="413.749" width="68.126" height="38.724" style="fill: rgb(216, 216, 216); stroke: rgb(0, 0, 0);"/>
    <rect x="713.034" y="413.749" width="57.084" height="38.724" style="fill: rgb(216, 216, 216); stroke: rgb(0, 0, 0);"/>
    <circle style="stroke: rgb(0, 0, 0); fill: rgb(255, 255, 255);" cx="375.745" cy="340.749" r="11.292"/>
    <circle style="stroke: rgb(0, 0, 0); fill: rgb(255, 255, 255);" cx="524.176" cy="341.397" r="11.292"/>
    <circle style="stroke: rgb(0, 0, 0); fill: rgb(255, 255, 255);" cx="708.82" cy="294.22" r="11.292"/>
    <circle style="stroke: rgb(0, 0, 0); fill: rgb(255, 255, 255);" cx="707.484" cy="388.44" r="11.292"/>
  </g>
  <g transform="matrix(1, 0, 0, 1, 286.912018, 33.452026)">
    <g>
      <g>
        <text style="fill: rgb(51, 51, 51); font-family: Arial, sans-serif; font-size: 85px; font-weight: 700; text-anchor: middle; white-space: pre;" x="243.088" y="103.599">The Book</text>
      </g>
    </g>
  </g>
</svg>