<svg id="diagram-new" class="fbd-diagram" xmlns="http://www.w3.org/2000/svg" width="100%" viewBox="0 0 125 374" preserveAspectRatio="xMidYMid meet" font-size="16px" data-fbd="{&quot;numStrings&quot;:6,&quot;numFrets&quot;:14,&quot;inlays&quot;:[3,5,7,9,&quot;12:double&quot;],&quot;grid&quot;:[[null,null,null,null,null,null,null,null],[null,null,null,null,null,&quot;&quot;,&quot;&quot;,null],[null,null,null,null,{&quot;dot&quot;:true,&quot;class&quot;:&quot;fbd-note-root&quot;,&quot;label&quot;:&quot;1&quot;},null,null,null],[null,null,null,null,null,&quot;&quot;,&quot;&quot;,null],[null,null,null,null,{&quot;label&quot;:&quot;2&quot;,&quot;dot&quot;:true,&quot;class&quot;:&quot;fbd-note-optional&quot;},&quot;&quot;,null,null],[null,null,null,null,{&quot;dot&quot;:true,&quot;label&quot;:&quot;♭3&quot;},null,null,null],[null,null,null,null,null,&quot;&quot;,&quot;&quot;,null],[null,null,null,null,{&quot;dot&quot;:true,&quot;label&quot;:&quot;4&quot;},null,null,null],[null,null,null,null,null,&quot;&quot;,null,null],[null,null,null,null,{&quot;dot&quot;:true,&quot;label&quot;:&quot;5&quot;},&quot;&quot;,null,null],[null,null,null,null,{&quot;label&quot;:&quot;♭6&quot;,&quot;dot&quot;:true,&quot;class&quot;:&quot;fbd-note-optional&quot;},null,null,null],[null,null,null,null,null,null,null,null],[null,null,null,null,{&quot;dot&quot;:true,&quot;label&quot;:&quot;♭7&quot;},null,&quot;&quot;,null],[null,null,null,null,null,null,null,null],[null,null,null,null,{&quot;dot&quot;:true,&quot;class&quot;:&quot;fbd-note-root&quot;,&quot;label&quot;:&quot;1&quot;}],[null]]}"><style type="text/css">/* <![CDATA[ */
 .fbd-grid { stroke: #999; } .fbd-grid-background { fill: #fff; } .fbd-diagram { font-family: "Helvetica Neue",Helvetica,Arial,sans-serif; font-weight: 500; } .fbd-inlays { fill: #f5f5f5; stroke: #ddd; } .fbd-positions text { fill: #333; text-anchor: middle; } .fbd-positions circle + text { fill: #fff; } .fbd-dots { fill: #000; stroke: none; } .fbd-note-footer { font-size: 75%; text-anchor: middle; fill: #000; } .fbd-note-root circle { fill: green; } .fbd-note-optional circle { fill: #fff; stroke: #999; stroke-dasharray: 5,2; } .fbd-note-optional circle + text { fill: #666; } .fbd-note-chromatic circle { fill: #fcc; } .fbd-note-chromatic circle + text { fill: #000; }
/* ]]> */
</style><g class="fbd-grid"><rect class="fbd-grid-background" x="10" y="10" width="105" height="350"></rect><path class="fbd-frets" d=" M10 10 h105 M10 35 h105 M10 60 h105 M10 85 h105 M10 110 h105 M10 135 h105 M10 160 h105 M10 185 h105 M10 210 h105 M10 235 h105 M10 260 h105 M10 285 h105 M10 310 h105 M10 335 h105 M10 360 h105"></path><path class="fbd-strings" d=" M10 10 v350 M31 10 v350 M52 10 v350 M73 10 v350 M94 10 v350 M115 10 v350"></path></g><g class="fbd-inlays"><circle cx="63" cy="73" r="4.75"></circle><circle cx="63" cy="123" r="4.75"></circle><circle cx="63" cy="173" r="4.75"></circle><circle cx="63" cy="223" r="4.75"></circle><circle cx="42" cy="298" r="4.75"></circle><circle cx="84" cy="298" r="4.75"></circle></g><g class="fbd-positions"><g class="fbd-pos-4-2 fbd-note-root"><circle cx="73" cy="48" r="9.5"></circle><text x="73" y="53.5">1</text></g><g class="fbd-pos-4-4 fbd-note-optional"><circle cx="73" cy="98" r="9.5"></circle><text x="73" y="103.5">2</text></g><g class="fbd-pos-4-5"><circle cx="73" cy="123" r="9.5"></circle><text font-size="70%" x="73" y="127.5">♭3</text></g><g class="fbd-pos-4-7"><circle cx="73" cy="173" r="9.5"></circle><text x="73" y="178.5">4</text></g><g class="fbd-pos-4-9"><circle cx="73" cy="223" r="9.5"></circle><text x="73" y="228.5">5</text></g><g class="fbd-pos-4-10 fbd-note-optional"><circle cx="73" cy="248" r="9.5"></circle><text font-size="70%" x="73" y="252.5">♭6</text></g><g class="fbd-pos-4-12"><circle cx="73" cy="298" r="9.5"></circle><text font-size="70%" x="73" y="302.5">♭7</text></g><g class="fbd-pos-4-14 fbd-note-root"><circle cx="73" cy="348" r="9.5"></circle><text x="73" y="353.5">1</text></g></g></svg>