<svg id="diagram-new" class="fbd-diagram" xmlns="http://www.w3.org/2000/svg" width="100%" viewBox="0 0 125 399" preserveAspectRatio="xMidYMid meet" font-size="16px" data-fbd="{&quot;numStrings&quot;:6,&quot;numFrets&quot;:15,&quot;inlays&quot;:[3,5,7,9,&quot;12:double&quot;],&quot;grid&quot;:[[null,null,null,null,null,null,null,null],[null,null,null,null,null,{&quot;label&quot;:&quot;C4&quot;,&quot;dot&quot;:true,&quot;class&quot;:&quot;fbd-note-root&quot;},null,null],[null,null,null,null,null,null,null,null],[null,null,{&quot;dot&quot;:true,&quot;label&quot;:&quot;C3&quot;},null,null,null,null,null],[null,null,null,null,null,null,null,null],[null,null,null,null,{&quot;dot&quot;:true,&quot;class&quot;:&quot;fbd-note-root&quot;,&quot;label&quot;:&quot;C4&quot;},null,null,null],[null,null,null,null,null,null,null,null],[null,null,null,null,null,null,null,null],[null,{&quot;label&quot;:&quot;C3&quot;,&quot;dot&quot;:true},null,null,null,null,{&quot;label&quot;:&quot;C5&quot;,&quot;dot&quot;:true},null],[null,null,null,null,null,null,null,null],[null,null,null,{&quot;dot&quot;:true,&quot;class&quot;:&quot;fbd-note-root&quot;,&quot;label&quot;:&quot;C4&quot;},null,null,null,null],[null],[null,null,null,null,null,null,null,null],[null,null,null,null,null,{&quot;dot&quot;:true,&quot;label&quot;:&quot;C5&quot;},null,null],[null,null,null,null,null,null,null,null],[null,null,{&quot;dot&quot;:true,&quot;class&quot;:&quot;fbd-note-root&quot;,&quot;label&quot;:&quot;C4&quot;},null,null,null,null,null],[null],[null]]}"><style type="text/css">/* <![CDATA[ */
 .fbd-grid { stroke: #999; } .fbd-grid-background { fill: #fff; } .fbd-diagram { font-family: "Helvetica Neue",Helvetica,Arial,sans-serif; font-weight: 500; } .fbd-inlays { fill: #f5f5f5; stroke: #ddd; } .fbd-positions text { fill: #333; text-anchor: middle; } .fbd-positions circle + text { fill: #fff; } .fbd-dots { fill: #000; stroke: none; } .fbd-note-footer { font-size: 75%; text-anchor: middle; fill: #000; } .fbd-note-root circle { fill: green; } .fbd-note-optional circle { fill: #fff; stroke: #999; stroke-dasharray: 5,2; } .fbd-note-optional circle + text { fill: #666; } .fbd-note-chromatic circle { fill: #fcc; } .fbd-note-chromatic circle + text { fill: #000; }
/* ]]> */
</style><g class="fbd-grid"><rect class="fbd-grid-background" x="10" y="10" width="105" height="375"></rect><path class="fbd-frets" d=" M10 10 h105 M10 35 h105 M10 60 h105 M10 85 h105 M10 110 h105 M10 135 h105 M10 160 h105 M10 185 h105 M10 210 h105 M10 235 h105 M10 260 h105 M10 285 h105 M10 310 h105 M10 335 h105 M10 360 h105 M10 385 h105"></path><path class="fbd-strings" d=" M10 10 v375 M31 10 v375 M52 10 v375 M73 10 v375 M94 10 v375 M115 10 v375"></path></g><g class="fbd-inlays"><circle cx="63" cy="73" r="4.75"></circle><circle cx="63" cy="123" r="4.75"></circle><circle cx="63" cy="173" r="4.75"></circle><circle cx="63" cy="223" r="4.75"></circle><circle cx="42" cy="298" r="4.75"></circle><circle cx="84" cy="298" r="4.75"></circle></g><g class="fbd-positions"><g class="fbd-pos-5-1 fbd-note-root"><circle cx="94" cy="23" r="9.5"></circle><text font-size="70%" x="94" y="27.5">C4</text></g><g class="fbd-pos-2-3"><circle cx="31" cy="73" r="9.5"></circle><text font-size="70%" x="31" y="77.5">C3</text></g><g class="fbd-pos-4-5 fbd-note-root"><circle cx="73" cy="123" r="9.5"></circle><text font-size="70%" x="73" y="127.5">C4</text></g><g class="fbd-pos-1-8"><circle cx="10" cy="198" r="9.5"></circle><text font-size="70%" x="10" y="202.5">C3</text></g><g class="fbd-pos-6-8"><circle cx="115" cy="198" r="9.5"></circle><text font-size="70%" x="115" y="202.5">C5</text></g><g class="fbd-pos-3-10 fbd-note-root"><circle cx="52" cy="248" r="9.5"></circle><text font-size="70%" x="52" y="252.5">C4</text></g><g class="fbd-pos-5-13"><circle cx="94" cy="323" r="9.5"></circle><text font-size="70%" x="94" y="327.5">C5</text></g><g class="fbd-pos-2-15 fbd-note-root"><circle cx="31" cy="373" r="9.5"></circle><text font-size="70%" x="31" y="377.5">C4</text></g></g></svg>