<svg xmlns="http://www.w3.org/2000/svg" width="80" height="130" viewBox="0 0 80 130" style="width: 80px; height: 130px;"><g class="vf-stave" id="vf-auto1006"><path stroke-width="1" stroke-dasharray="none" fill="none" stroke="#999999" d="M10 50L72.07264 50"></path><path stroke-width="1" stroke-dasharray="none" fill="none" stroke="#999999" d="M10 60L72.07264 60"></path><path stroke-width="1" stroke-dasharray="none" fill="none" stroke="#999999" d="M10 70L72.07264 70"></path><path stroke-width="1" stroke-dasharray="none" fill="none" stroke="#999999" d="M10 80L72.07264 80"></path><path stroke-width="1" stroke-dasharray="none" fill="none" stroke="#999999" d="M10 90L72.07264 90"></path><rect x="72.07264" y="49.5" width="1" height="41" fill="black"></rect><g class="vf-clef" id="vf-auto1009"><path stroke-width="0.3" stroke-dasharray="none" fill="black" stroke="none" d="M28.711104 65.844288C28.660416 65.41344,28.711104 65.388096,28.9392 65.16C32.892864 61.485119999999995,35.883456 56.847167999999996,35.883456 51.246144C35.883456 48.078143999999995,34.996415999999996 44.935488,33.50112 42.755903999999994C32.943552 41.944896,32.005824000000004 40.931135999999995,31.60032 40.931135999999995C31.09344 40.931135999999995,29.95296 41.868863999999995,29.243328 42.679871999999996C26.53152 45.670463999999996,25.64448 50.232383999999996,25.64448 54.033984C25.64448 56.137536,25.923264000000003 58.519872,26.176704 60.015168C26.252736 60.446016,26.278080000000003 60.522048,25.847231999999998 60.902208C20.57568 65.236032,15 70.456896,15 77.832C15 84.168,19.333824 90.199872,28.280256 90.199872C29.116608 90.199872,30.079680000000003 90.12384,30.814656 89.971776C31.194816000000003 89.89574400000001,31.270848 89.8704,31.346880000000002 90.301248C31.777728 92.759616,32.335296 95.927616,32.335296 97.651008C32.335296 103.04928000000001,28.685760000000002 103.708224,26.53152 103.708224C24.554688 103.708224,23.61696 103.12531200000001,23.61696 102.643776C23.61696 102.390336,23.946432 102.28896,24.782784 102.010176C25.923264000000003 101.680704,27.215808000000003 100.71763200000001,27.215808000000003 98.588736C27.215808000000003 96.58656,25.948608 94.863168,23.718336 94.863168C21.285312 94.863168,19.81536 96.814656,19.81536 99.070272C19.81536 101.42726400000001,21.234624 105.026112,26.759616 105.026112C29.19264 105.026112,33.931968 103.910976,33.931968 97.72704C33.931968 95.62348800000001,33.27302400000001 92.176704,32.892864 89.89574400000001C32.816832000000005 89.464896,32.842176 89.515584,33.349056000000004 89.287488C37.04928 87.817536,39.482304 84.725568,39.482304 80.594496C39.482304 75.9312,36.060864 71.800128,30.687936 71.800128C29.750208 71.800128,29.750208 71.800128,29.623488000000002 71.141184M32.157888 46.582848C33.349056000000004 46.582848,34.337472000000005 47.571264,34.337472000000005 49.57344C34.337472000000005 53.628479999999996,30.865344 56.923199999999994,28.001472 59.432255999999995C27.748032000000002 59.660352,27.595968 59.609663999999995,27.519936 59.128128C27.367872 58.1904,27.29184 56.948544,27.29184 55.78272C27.29184 50.08032,29.927616 46.582848,32.157888 46.582848M28.17888 71.445312C28.280256 72.1296,28.280256 72.10425599999999,27.621312000000003 72.307008C24.427968 73.3968,22.324416 76.286016,22.324416 79.403328C22.324416 82.672704,24.047808 85.004352,26.53152 85.866048C26.835648 85.967424,27.266496 86.0688,27.519936 86.0688C27.798720000000003 86.0688,27.950784 85.891392,27.950784 85.663296C27.950784 85.409856,27.672 85.30848,27.41856 85.207104C25.872576000000002 84.54816,24.782784 82.976832,24.782784 81.304128C24.782784 79.200576,26.202048 77.654592,28.43232 77.020992C29.015232 76.868928,29.091264000000002 76.919616,29.167296 77.32512L30.992064 88.19769600000001C31.068096 88.6032,31.017408 88.6032,30.485184000000004 88.704576C29.902272000000004 88.805952,29.167296 88.881984,28.43232 88.881984C22.045632 88.881984,17.91456 85.33382399999999,17.91456 80.265024C17.91456 78.110784,18.29472 75.221568,21.310656 71.800128C23.515584 69.367104,25.188288 67.998528,26.886336 66.629952C27.266496 66.325824,27.342528 66.37651199999999,27.41856 66.756672M30.687936 77.249088C30.611904000000003 76.792896,30.662592000000004 76.69152,31.09344 76.742208C34.058688000000004 76.995648,36.49171200000001 79.47936,36.49171200000001 82.672704C36.49171200000001 84.979008,35.097792 86.82912,33.070272 87.868224C32.639424000000005 88.070976,32.563392 88.070976,32.48736 87.640128"></path><path stroke-width="0.3" stroke-dasharray="none" fill="black" stroke="none" d="M31.23376 109.32608C31.90768 108.8984,32.34832 108.28928,32.34832 107.35616C32.34832 105.45104,29.61376 105.16592,29.10832 105.16592C26.944 105.16592,25.46656 106.15088,25.46656 107.71904C25.46656 109.01504,26.19232 109.70192,27.08656 110.20736C26.11456 110.67392,25.37584 111.28304,25.37584 112.4624C25.37584 114.0824,27.04768 114.83408,28.90096 114.83408C30.7672 114.83408,32.76304 114.03056,32.76304 111.51632C32.76304 110.3888,32.11504 109.77968,31.23376 109.32608M30.26176 108.8984C28.77136 108.38,27.17728 108.056,27.17728 106.8896C27.17728 106.09904,28.25296 105.71024,29.06944 105.71024C29.665599999999998 105.71024,31.24672 106.00832,31.24672 107.31728C31.24672 108.056,30.88384 108.54848,30.26176 108.8984M28.8232 114.212C27.57904 114.212,26.43856 113.57696,26.43856 112.37168C26.43856 111.62,27.08656 110.93312,27.916 110.62208C29.2768 111.21824,30.65056 111.60704,30.65056 112.83824C30.65056 113.57696,30.08032 114.212,28.8232 114.212"></path></g></g><g class="vf-stavenote" id="vf-auto1001"><g class="vf-note" pointer-events="bounding-box"><g class="vf-notehead" pointer-events="bounding-box"><path stroke-width="0.3" stroke-dasharray="none" fill="black" stroke="none" d="M61.73288 44.9456C56.3696 44.9456,53 47.16392,53 49.91576C53 52.63952,55.30256 55.0544,61.33976 55.0544C67.96664 55.0544,70.07264 52.75184,70.07264 49.91576C70.07264 47.0516,65.4956 44.9456,61.73288 44.9456M57.4928 47.44472C57.94208 46.04072,59.43032 45.84416,60.69392 45.84416C63.47384 45.84416,65.69216 48.82064,65.69216 51.2636C65.69216 52.49912,65.15864 53.6504,63.83888 53.95928C63.44576 54.071600000000004,62.99648 54.12776,62.57528 54.12776C61.115120000000005 54.12776,59.62688 53.14496,58.78448 52.02176C57.97016 51.09512,57.38048 49.7192,57.38048 48.42752C57.38048 48.090559999999996,57.40856 47.78168,57.4928 47.44472"></path></g></g><g class="vf-modifiers"></g></g></svg>