<svg xmlns="http://www.w3.org/2000/svg" width="300" height="100" viewBox="0 0 300 100" style="width: 300px; height: 100px;"><g class="vf-stave" id="vf-auto1000"><path stroke-width="1" stroke-dasharray="none" fill="none" stroke="#999999" d="M10 30L150 30"></path><path stroke-width="1" stroke-dasharray="none" fill="none" stroke="#999999" d="M10 40L150 40"></path><path stroke-width="1" stroke-dasharray="none" fill="none" stroke="#999999" d="M10 50L150 50"></path><path stroke-width="1" stroke-dasharray="none" fill="none" stroke="#999999" d="M10 60L150 60"></path><path stroke-width="1" stroke-dasharray="none" fill="none" stroke="#999999" d="M10 70L150 70"></path><rect x="10" y="29.5" width="1" height="41" fill="black"></rect><rect x="150" y="29.5" width="1" height="41" fill="black"></rect><g class="vf-clef" id="vf-auto1003"><path stroke-width="0.3" stroke-dasharray="none" fill="black" stroke="none" d="M28.711104 45.844288C28.660416 45.41344,28.711104 45.388096,28.9392 45.16C32.892864 41.485119999999995,35.883456 36.847167999999996,35.883456 31.246143999999997C35.883456 28.078143999999995,34.996415999999996 24.935488,33.50112 22.755903999999994C32.943552 21.944896,32.005824000000004 20.931135999999995,31.60032 20.931135999999995C31.09344 20.931135999999995,29.95296 21.868863999999995,29.243328 22.679871999999996C26.53152 25.670463999999996,25.64448 30.232383999999996,25.64448 34.033984C25.64448 36.137536,25.923264000000003 38.519872,26.176704 40.015168C26.252736 40.446016,26.278080000000003 40.522048,25.847231999999998 40.902208C20.57568 45.236031999999994,15 50.456896,15 57.832C15 64.168,19.333824 70.199872,28.280256 70.199872C29.116608 70.199872,30.079680000000003 70.12384,30.814656 69.971776C31.194816000000003 69.89574400000001,31.270848 69.8704,31.346880000000002 70.301248C31.777728 72.759616,32.335296 75.927616,32.335296 77.651008C32.335296 83.04928000000001,28.685760000000002 83.708224,26.53152 83.708224C24.554688 83.708224,23.61696 83.12531200000001,23.61696 82.643776C23.61696 82.390336,23.946432 82.28896,24.782784 82.010176C25.923264000000003 81.680704,27.215808000000003 80.71763200000001,27.215808000000003 78.588736C27.215808000000003 76.58656,25.948608 74.863168,23.718336 74.863168C21.285312 74.863168,19.81536 76.814656,19.81536 79.070272C19.81536 81.42726400000001,21.234624 85.026112,26.759616 85.026112C29.19264 85.026112,33.931968 83.910976,33.931968 77.72704C33.931968 75.62348800000001,33.27302400000001 72.176704,32.892864 69.89574400000001C32.816832000000005 69.464896,32.842176 69.515584,33.349056000000004 69.287488C37.04928 67.817536,39.482304 64.725568,39.482304 60.594496C39.482304 55.9312,36.060864 51.800128,30.687936 51.800128C29.750208 51.800128,29.750208 51.800128,29.623488000000002 51.141183999999996M32.157888 26.582848C33.349056000000004 26.582848,34.337472000000005 27.571264,34.337472000000005 29.573439999999998C34.337472000000005 33.628479999999996,30.865344 36.923199999999994,28.001472 39.432255999999995C27.748032000000002 39.660352,27.595968 39.609663999999995,27.519936 39.128128C27.367872 38.1904,27.29184 36.948544,27.29184 35.78272C27.29184 30.080319999999997,29.927616 26.582848,32.157888 26.582848M28.17888 51.445312C28.280256 52.129599999999996,28.280256 52.104256,27.621312000000003 52.307007999999996C24.427968 53.3968,22.324416 56.286016000000004,22.324416 59.403328C22.324416 62.672704,24.047808 65.004352,26.53152 65.866048C26.835648 65.967424,27.266496 66.0688,27.519936 66.0688C27.798720000000003 66.0688,27.950784 65.891392,27.950784 65.663296C27.950784 65.409856,27.672 65.30848,27.41856 65.207104C25.872576000000002 64.54816,24.782784 62.976832,24.782784 61.304128C24.782784 59.200576,26.202048 57.654592,28.43232 57.020992C29.015232 56.868928,29.091264000000002 56.919616,29.167296 57.32512L30.992064 68.19769600000001C31.068096 68.6032,31.017408 68.6032,30.485184000000004 68.704576C29.902272000000004 68.805952,29.167296 68.881984,28.43232 68.881984C22.045632 68.881984,17.91456 65.33382399999999,17.91456 60.265024C17.91456 58.110784,18.29472 55.221568,21.310656 51.800128C23.515584 49.367104,25.188288 47.998528,26.886336 46.629952C27.266496 46.325824,27.342528 46.376512,27.41856 46.756671999999995M30.687936 57.249088C30.611904000000003 56.792896,30.662592000000004 56.69152,31.09344 56.742208C34.058688000000004 56.995648,36.49171200000001 59.47936,36.49171200000001 62.672704C36.49171200000001 64.979008,35.097792 66.82912,33.070272 67.868224C32.639424000000005 68.070976,32.563392 68.070976,32.48736 67.640128"></path></g></g><g class="vf-stavenote" id="vf-auto1005"><g class="vf-note" pointer-events="bounding-box"><g class="vf-notehead" pointer-events="bounding-box"><path stroke-width="0.3" stroke-dasharray="none" fill="black" stroke="none" d="M87.34199864583333 54.9456C81.97871864583334 54.9456,78.60911864583333 57.16392,78.60911864583333 59.91576C78.60911864583333 62.63952,80.91167864583333 65.0544,86.94887864583333 65.0544C93.57575864583333 65.0544,95.68175864583333 62.75184,95.68175864583333 59.91576C95.68175864583333 57.0516,91.10471864583333 54.9456,87.34199864583333 54.9456M83.10191864583334 57.44472C83.55119864583334 56.04072,85.03943864583333 55.84416,86.30303864583334 55.84416C89.08295864583333 55.84416,91.30127864583334 58.82064,91.30127864583334 61.2636C91.30127864583334 62.49912,90.76775864583334 63.6504,89.44799864583334 63.95928C89.05487864583333 64.0716,88.60559864583334 64.12776,88.18439864583334 64.12776C86.72423864583334 64.12776,85.23599864583333 63.14496,84.39359864583334 62.02176C83.57927864583334 61.09512,82.98959864583334 59.7192,82.98959864583334 58.42752C82.98959864583334 58.090559999999996,83.01767864583333 57.78168,83.10191864583334 57.44472"></path></g></g><g class="vf-modifiers"><g id="vf-auto1009"><text stroke-width="0.3" stroke-dasharray="none" fill="black" stroke="none" font-family="Arial, sans-serif" font-size="10pt" font-weight="normal" font-style="normal" x="78.25090739583334" y="92.29296875">G4</text></g></g></g><g class="vf-stave" id="vf-auto1011"><path stroke-width="1" stroke-dasharray="none" fill="none" stroke="#999999" d="M150 30L290 30"></path><path stroke-width="1" stroke-dasharray="none" fill="none" stroke="#999999" d="M150 40L290 40"></path><path stroke-width="1" stroke-dasharray="none" fill="none" stroke="#999999" d="M150 50L290 50"></path><path stroke-width="1" stroke-dasharray="none" fill="none" stroke="#999999" d="M150 60L290 60"></path><path stroke-width="1" stroke-dasharray="none" fill="none" stroke="#999999" d="M150 70L290 70"></path><rect x="150" y="29.5" width="1" height="41" fill="black"></rect><rect x="290" y="29.5" width="1" height="41" fill="black"></rect></g><g class="vf-stavenote" id="vf-auto1014"><g class="vf-note" pointer-events="bounding-box"><g class="vf-notehead" pointer-events="bounding-box"><path stroke-width="0.3" stroke-dasharray="none" fill="black" stroke="none" d="M220.8787133333333 49.9456C215.5154333333333 49.9456,212.14583333333331 52.16392,212.14583333333331 54.91576C212.14583333333331 57.63952,214.4483933333333 60.0544,220.48559333333333 60.0544C227.11247333333333 60.0544,229.21847333333332 57.75184,229.21847333333332 54.91576C229.21847333333332 52.0516,224.6414333333333 49.9456,220.8787133333333 49.9456M216.6386333333333 52.44472C217.08791333333332 51.04072,218.5761533333333 50.84416,219.8397533333333 50.84416C222.6196733333333 50.84416,224.83799333333332 53.82064,224.83799333333332 56.2636C224.83799333333332 57.49912,224.3044733333333 58.6504,222.9847133333333 58.95928C222.59159333333332 59.071600000000004,222.1423133333333 59.12776,221.7211133333333 59.12776C220.2609533333333 59.12776,218.77271333333331 58.14496,217.93031333333332 57.02176C217.1159933333333 56.09512,216.52631333333332 54.7192,216.52631333333332 53.42752C216.52631333333332 53.090559999999996,216.5543933333333 52.78168,216.6386333333333 52.44472"></path></g></g><g class="vf-modifiers"><g id="vf-auto1018"><text stroke-width="0.3" stroke-dasharray="none" fill="black" stroke="none" font-family="Arial, sans-serif" font-size="10pt" font-weight="normal" font-style="normal" x="212.52004681935625" y="92.29296875">A4</text></g></g></g></svg>