<svg xmlns="http://www.w3.org/2000/svg" width="300" height="100" viewBox="0 0 300 100" style="width: 300px; height: 100px;"><g class="vf-stave" id="vf-auto1000"><path stroke-width="1" stroke-dasharray="none" fill="none" stroke="#999999" d="M10 30L290 30"></path><path stroke-width="1" stroke-dasharray="none" fill="none" stroke="#999999" d="M10 40L290 40"></path><path stroke-width="1" stroke-dasharray="none" fill="none" stroke="#999999" d="M10 50L290 50"></path><path stroke-width="1" stroke-dasharray="none" fill="none" stroke="#999999" d="M10 60L290 60"></path><path stroke-width="1" stroke-dasharray="none" fill="none" stroke="#999999" d="M10 70L290 70"></path><rect x="10" y="29.5" width="1" height="41" fill="black"></rect><rect x="290" y="29.5" width="1" height="41" fill="black"></rect><g class="vf-clef" id="vf-auto1003"><path stroke-width="0.3" stroke-dasharray="none" fill="black" stroke="none" d="M28.711104 45.844288C28.660416 45.41344,28.711104 45.388096,28.9392 45.16C32.892864 41.485119999999995,35.883456 36.847167999999996,35.883456 31.246143999999997C35.883456 28.078143999999995,34.996415999999996 24.935488,33.50112 22.755903999999994C32.943552 21.944896,32.005824000000004 20.931135999999995,31.60032 20.931135999999995C31.09344 20.931135999999995,29.95296 21.868863999999995,29.243328 22.679871999999996C26.53152 25.670463999999996,25.64448 30.232383999999996,25.64448 34.033984C25.64448 36.137536,25.923264000000003 38.519872,26.176704 40.015168C26.252736 40.446016,26.278080000000003 40.522048,25.847231999999998 40.902208C20.57568 45.236031999999994,15 50.456896,15 57.832C15 64.168,19.333824 70.199872,28.280256 70.199872C29.116608 70.199872,30.079680000000003 70.12384,30.814656 69.971776C31.194816000000003 69.89574400000001,31.270848 69.8704,31.346880000000002 70.301248C31.777728 72.759616,32.335296 75.927616,32.335296 77.651008C32.335296 83.04928000000001,28.685760000000002 83.708224,26.53152 83.708224C24.554688 83.708224,23.61696 83.12531200000001,23.61696 82.643776C23.61696 82.390336,23.946432 82.28896,24.782784 82.010176C25.923264000000003 81.680704,27.215808000000003 80.71763200000001,27.215808000000003 78.588736C27.215808000000003 76.58656,25.948608 74.863168,23.718336 74.863168C21.285312 74.863168,19.81536 76.814656,19.81536 79.070272C19.81536 81.42726400000001,21.234624 85.026112,26.759616 85.026112C29.19264 85.026112,33.931968 83.910976,33.931968 77.72704C33.931968 75.62348800000001,33.27302400000001 72.176704,32.892864 69.89574400000001C32.816832000000005 69.464896,32.842176 69.515584,33.349056000000004 69.287488C37.04928 67.817536,39.482304 64.725568,39.482304 60.594496C39.482304 55.9312,36.060864 51.800128,30.687936 51.800128C29.750208 51.800128,29.750208 51.800128,29.623488000000002 51.141183999999996M32.157888 26.582848C33.349056000000004 26.582848,34.337472000000005 27.571264,34.337472000000005 29.573439999999998C34.337472000000005 33.628479999999996,30.865344 36.923199999999994,28.001472 39.432255999999995C27.748032000000002 39.660352,27.595968 39.609663999999995,27.519936 39.128128C27.367872 38.1904,27.29184 36.948544,27.29184 35.78272C27.29184 30.080319999999997,29.927616 26.582848,32.157888 26.582848M28.17888 51.445312C28.280256 52.129599999999996,28.280256 52.104256,27.621312000000003 52.307007999999996C24.427968 53.3968,22.324416 56.286016000000004,22.324416 59.403328C22.324416 62.672704,24.047808 65.004352,26.53152 65.866048C26.835648 65.967424,27.266496 66.0688,27.519936 66.0688C27.798720000000003 66.0688,27.950784 65.891392,27.950784 65.663296C27.950784 65.409856,27.672 65.30848,27.41856 65.207104C25.872576000000002 64.54816,24.782784 62.976832,24.782784 61.304128C24.782784 59.200576,26.202048 57.654592,28.43232 57.020992C29.015232 56.868928,29.091264000000002 56.919616,29.167296 57.32512L30.992064 68.19769600000001C31.068096 68.6032,31.017408 68.6032,30.485184000000004 68.704576C29.902272000000004 68.805952,29.167296 68.881984,28.43232 68.881984C22.045632 68.881984,17.91456 65.33382399999999,17.91456 60.265024C17.91456 58.110784,18.29472 55.221568,21.310656 51.800128C23.515584 49.367104,25.188288 47.998528,26.886336 46.629952C27.266496 46.325824,27.342528 46.376512,27.41856 46.756671999999995M30.687936 57.249088C30.611904000000003 56.792896,30.662592000000004 56.69152,31.09344 56.742208C34.058688000000004 56.995648,36.49171200000001 59.47936,36.49171200000001 62.672704C36.49171200000001 64.979008,35.097792 66.82912,33.070272 67.868224C32.639424000000005 68.070976,32.563392 68.070976,32.48736 67.640128"></path></g></g><g class="vf-stavenote" id="vf-auto1005"><g class="vf-note" pointer-events="bounding-box"><g class="vf-notehead" pointer-events="bounding-box"><path stroke-width="0.3" stroke-dasharray="none" fill="black" stroke="none" d="M61.73288 59.9456C56.3696 59.9456,53 62.16392,53 64.91576C53 67.63952,55.30256 70.0544,61.33976 70.0544C67.96664 70.0544,70.07264 67.75184,70.07264 64.91576C70.07264 62.0516,65.4956 59.9456,61.73288 59.9456M57.4928 62.44472C57.94208 61.04072,59.43032 60.84416,60.69392 60.84416C63.47384 60.84416,65.69216 63.82064,65.69216 66.2636C65.69216 67.49912,65.15864 68.6504,63.83888 68.95928C63.44576 69.0716,62.99648 69.12776,62.57528 69.12776C61.115120000000005 69.12776,59.62688 68.14496,58.78448 67.02176C57.97016 66.09512,57.38048 64.7192,57.38048 63.42752C57.38048 63.090559999999996,57.40856 62.78168,57.4928 62.44472"></path></g></g><g class="vf-modifiers"><g id="vf-auto1009"><text stroke-width="0.3" stroke-dasharray="none" fill="black" stroke="none" font-family="Arial, sans-serif" font-size="10pt" font-weight="normal" font-style="normal" x="57.46210125" y="92.29296875">F</text></g></g></g><g class="vf-stavenote" id="vf-auto1010"><g class="vf-note" pointer-events="bounding-box"><g class="vf-notehead" pointer-events="bounding-box"><path stroke-width="0.3" stroke-dasharray="none" fill="black" stroke="none" d="M125.98288 49.9456C120.6196 49.9456,117.25 52.16392,117.25 54.91576C117.25 57.63952,119.55256 60.0544,125.58976 60.0544C132.21664 60.0544,134.32264 57.75184,134.32264 54.91576C134.32264 52.0516,129.7456 49.9456,125.98288 49.9456M121.7428 52.44472C122.19208 51.04072,123.68032 50.84416,124.94392 50.84416C127.72384 50.84416,129.94216 53.82064,129.94216 56.2636C129.94216 57.49912,129.40864 58.6504,128.08888 58.95928C127.69576 59.071600000000004,127.24648 59.12776,126.82528 59.12776C125.36512 59.12776,123.87688 58.14496,123.03448 57.02176C122.22015999999999 56.09512,121.63048 54.7192,121.63048 53.42752C121.63048 53.090559999999996,121.65856 52.78168,121.7428 52.44472"></path></g></g><g class="vf-modifiers"><g id="vf-auto1014"><text stroke-width="0.3" stroke-dasharray="none" fill="black" stroke="none" font-family="Arial, sans-serif" font-size="10pt" font-weight="normal" font-style="normal" x="121.32129076034546" y="92.29296875">A</text></g></g></g><g class="vf-stavenote" id="vf-auto1015"><g class="vf-note" pointer-events="bounding-box"><g class="vf-notehead" pointer-events="bounding-box"><path stroke-width="0.3" stroke-dasharray="none" fill="black" stroke="none" d="M190.23288 39.9456C184.8696 39.9456,181.5 42.16392,181.5 44.91576C181.5 47.63952,183.80256 50.0544,189.83976 50.0544C196.46664 50.0544,198.57264 47.75184,198.57264 44.91576C198.57264 42.0516,193.9956 39.9456,190.23288 39.9456M185.9928 42.44472C186.44208 41.04072,187.93032 40.84416,189.19392 40.84416C191.97384 40.84416,194.19216 43.82064,194.19216 46.2636C194.19216 47.49912,193.65864 48.6504,192.33888 48.95928C191.94576 49.071600000000004,191.49648 49.12776,191.07528 49.12776C189.61512 49.12776,188.12688 48.14496,187.28448 47.02176C186.47016 46.09512,185.88048 44.7192,185.88048 43.42752C185.88048 43.090559999999996,185.90856 42.78168,185.9928 42.44472"></path></g></g><g class="vf-modifiers"><g id="vf-auto1019"><text stroke-width="0.3" stroke-dasharray="none" fill="black" stroke="none" font-family="Arial, sans-serif" font-size="10pt" font-weight="normal" font-style="normal" x="185.21991375" y="92.29296875">C</text></g></g></g><g class="vf-stavenote" id="vf-auto1020"><g class="vf-note" pointer-events="bounding-box"><g class="vf-notehead" pointer-events="bounding-box"><path stroke-width="0.3" stroke-dasharray="none" fill="black" stroke="none" d="M254.48288 29.9456C249.1196 29.9456,245.75 32.16392,245.75 34.91576C245.75 37.63952,248.05256 40.0544,254.08976 40.0544C260.71664 40.0544,262.82264 37.75184,262.82264 34.91576C262.82264 32.0516,258.2456 29.9456,254.48288 29.9456M250.2428 32.44472C250.69208 31.04072,252.18032 30.84416,253.44392 30.84416C256.22384 30.84416,258.44216 33.82064,258.44216 36.2636C258.44216 37.49912,257.90864 38.6504,256.58888 38.95928C256.19576 39.071600000000004,255.74648 39.12776,255.32528 39.12776C253.86512 39.12776,252.37688 38.14496,251.53448 37.02176C250.72016 36.09512,250.13048 34.7192,250.13048 33.42752C250.13048 33.090559999999996,250.15856 32.78168,250.2428 32.44472"></path></g></g><g class="vf-modifiers"><g id="vf-auto1024"><text stroke-width="0.3" stroke-dasharray="none" fill="black" stroke="none" font-family="Arial, sans-serif" font-size="10pt" font-weight="normal" font-style="normal" x="249.83710125" y="92.29296875">E</text></g></g></g></svg>