<svg xmlns="http://www.w3.org/2000/svg" width="300" height="120" viewBox="0 0 300 120" style="width: 300px; height: 120px;"><g class="vf-stave" id="vf-auto1000"><path stroke-width="1" stroke-dasharray="none" fill="none" stroke="#999999" d="M10 40L290 40"></path><path stroke-width="1" stroke-dasharray="none" fill="none" stroke="#999999" d="M10 50L290 50"></path><path stroke-width="1" stroke-dasharray="none" fill="none" stroke="#999999" d="M10 60L290 60"></path><path stroke-width="1" stroke-dasharray="none" fill="none" stroke="#999999" d="M10 70L290 70"></path><path stroke-width="1" stroke-dasharray="none" fill="none" stroke="#999999" d="M10 80L290 80"></path><rect x="10" y="39.5" width="1" height="41" fill="black"></rect><rect x="290" y="39.5" width="1" height="41" fill="black"></rect><g class="vf-clef" id="vf-auto1003"><path stroke-width="0.3" stroke-dasharray="none" fill="black" stroke="none" d="M28.711104 55.844288C28.660416 55.41344,28.711104 55.388096,28.9392 55.16C32.892864 51.485119999999995,35.883456 46.847167999999996,35.883456 41.246144C35.883456 38.078143999999995,34.996415999999996 34.935488,33.50112 32.755903999999994C32.943552 31.944896,32.005824000000004 30.931135999999995,31.60032 30.931135999999995C31.09344 30.931135999999995,29.95296 31.868863999999995,29.243328 32.679871999999996C26.53152 35.670463999999996,25.64448 40.232383999999996,25.64448 44.033984C25.64448 46.137536,25.923264000000003 48.519872,26.176704 50.015168C26.252736 50.446016,26.278080000000003 50.522048,25.847231999999998 50.902208C20.57568 55.236031999999994,15 60.456896,15 67.832C15 74.168,19.333824 80.199872,28.280256 80.199872C29.116608 80.199872,30.079680000000003 80.12384,30.814656 79.971776C31.194816000000003 79.89574400000001,31.270848 79.8704,31.346880000000002 80.301248C31.777728 82.759616,32.335296 85.927616,32.335296 87.651008C32.335296 93.04928000000001,28.685760000000002 93.708224,26.53152 93.708224C24.554688 93.708224,23.61696 93.12531200000001,23.61696 92.643776C23.61696 92.390336,23.946432 92.28896,24.782784 92.010176C25.923264000000003 91.680704,27.215808000000003 90.71763200000001,27.215808000000003 88.588736C27.215808000000003 86.58656,25.948608 84.863168,23.718336 84.863168C21.285312 84.863168,19.81536 86.814656,19.81536 89.070272C19.81536 91.42726400000001,21.234624 95.026112,26.759616 95.026112C29.19264 95.026112,33.931968 93.910976,33.931968 87.72704C33.931968 85.62348800000001,33.27302400000001 82.176704,32.892864 79.89574400000001C32.816832000000005 79.464896,32.842176 79.515584,33.349056000000004 79.287488C37.04928 77.817536,39.482304 74.725568,39.482304 70.594496C39.482304 65.9312,36.060864 61.800128,30.687936 61.800128C29.750208 61.800128,29.750208 61.800128,29.623488000000002 61.141183999999996M32.157888 36.582848C33.349056000000004 36.582848,34.337472000000005 37.571264,34.337472000000005 39.57344C34.337472000000005 43.628479999999996,30.865344 46.923199999999994,28.001472 49.432255999999995C27.748032000000002 49.660352,27.595968 49.609663999999995,27.519936 49.128128C27.367872 48.1904,27.29184 46.948544,27.29184 45.78272C27.29184 40.08032,29.927616 36.582848,32.157888 36.582848M28.17888 61.445312C28.280256 62.129599999999996,28.280256 62.104256,27.621312000000003 62.307007999999996C24.427968 63.3968,22.324416 66.286016,22.324416 69.403328C22.324416 72.672704,24.047808 75.004352,26.53152 75.866048C26.835648 75.967424,27.266496 76.0688,27.519936 76.0688C27.798720000000003 76.0688,27.950784 75.891392,27.950784 75.663296C27.950784 75.409856,27.672 75.30848,27.41856 75.207104C25.872576000000002 74.54816,24.782784 72.976832,24.782784 71.304128C24.782784 69.200576,26.202048 67.654592,28.43232 67.020992C29.015232 66.868928,29.091264000000002 66.919616,29.167296 67.32512L30.992064 78.19769600000001C31.068096 78.6032,31.017408 78.6032,30.485184000000004 78.704576C29.902272000000004 78.805952,29.167296 78.881984,28.43232 78.881984C22.045632 78.881984,17.91456 75.33382399999999,17.91456 70.265024C17.91456 68.110784,18.29472 65.221568,21.310656 61.800128C23.515584 59.367104,25.188288 57.998528,26.886336 56.629952C27.266496 56.325824,27.342528 56.376512,27.41856 56.756671999999995M30.687936 67.249088C30.611904000000003 66.792896,30.662592000000004 66.69152,31.09344 66.742208C34.058688000000004 66.995648,36.49171200000001 69.47936,36.49171200000001 72.672704C36.49171200000001 74.979008,35.097792 76.82912,33.070272 77.868224C32.639424000000005 78.070976,32.563392 78.070976,32.48736 77.640128"></path><path stroke-width="0.3" stroke-dasharray="none" fill="black" stroke="none" d="M31.23376 99.32608C31.90768 98.8984,32.34832 98.28928,32.34832 97.35616C32.34832 95.45104,29.61376 95.16592,29.10832 95.16592C26.944 95.16592,25.46656 96.15088,25.46656 97.71904C25.46656 99.01504,26.19232 99.70192,27.08656 100.20736C26.11456 100.67392,25.37584 101.28304,25.37584 102.4624C25.37584 104.0824,27.04768 104.83408,28.90096 104.83408C30.7672 104.83408,32.76304 104.03056,32.76304 101.51632C32.76304 100.3888,32.11504 99.77968,31.23376 99.32608M30.26176 98.8984C28.77136 98.38,27.17728 98.056,27.17728 96.8896C27.17728 96.09904,28.25296 95.71024,29.06944 95.71024C29.665599999999998 95.71024,31.24672 96.00832,31.24672 97.31728C31.24672 98.056,30.88384 98.54848,30.26176 98.8984M28.8232 104.212C27.57904 104.212,26.43856 103.57696,26.43856 102.37168C26.43856 101.62,27.08656 100.93312,27.916 100.62208C29.2768 101.21824,30.65056 101.60704,30.65056 102.83824C30.65056 103.57696,30.08032 104.212,28.8232 104.212"></path></g></g><g class="vf-stavenote" id="vf-auto1006"><g class="vf-note" pointer-events="bounding-box"><g class="vf-notehead" pointer-events="bounding-box"><path stroke-width="0.3" stroke-dasharray="none" fill="black" stroke="none" d="M63.442002708333334 29.9456C58.07872270833333 29.9456,54.70912270833333 32.16392,54.70912270833333 34.91576C54.70912270833333 37.63952,57.01168270833333 40.0544,63.04888270833333 40.0544C69.67576270833334 40.0544,71.78176270833333 37.75184,71.78176270833333 34.91576C71.78176270833333 32.0516,67.20472270833334 29.9456,63.442002708333334 29.9456M59.201922708333335 32.44472C59.65120270833333 31.04072,61.139442708333334 30.84416,62.40304270833333 30.84416C65.18296270833333 30.84416,67.40128270833333 33.82064,67.40128270833333 36.2636C67.40128270833333 37.49912,66.86776270833333 38.6504,65.54800270833333 38.95928C65.15488270833333 39.071600000000004,64.70560270833333 39.12776,64.28440270833333 39.12776C62.82424270833333 39.12776,61.33600270833333 38.14496,60.493602708333334 37.02176C59.67928270833333 36.09512,59.08960270833333 34.7192,59.08960270833333 33.42752C59.08960270833333 33.090559999999996,59.117682708333334 32.78168,59.201922708333335 32.44472"></path></g></g><g class="vf-modifiers"><g id="vf-auto1010"><text stroke-width="0.3" stroke-dasharray="none" fill="black" stroke="none" font-family="Arial, sans-serif" font-size="10pt" font-weight="normal" font-style="normal" x="54.35091145833333" y="102.29296875">G4</text></g></g></g><g class="vf-stavenote" id="vf-auto1011"><path stroke-width="1.4" stroke-dasharray="none" fill="none" stroke="#444" d="M115.82728677083333 30L138.89992677083333 30"></path><g class="vf-note" pointer-events="bounding-box"><g class="vf-notehead" pointer-events="bounding-box"><path stroke-width="0.3" stroke-dasharray="none" fill="black" stroke="none" d="M127.56016677083332 24.9456C122.19688677083333 24.9456,118.82728677083333 27.16392,118.82728677083333 29.91576C118.82728677083333 32.63952,121.12984677083332 35.0544,127.16704677083332 35.0544C133.79392677083334 35.0544,135.89992677083333 32.75184,135.89992677083333 29.91576C135.89992677083333 27.0516,131.32288677083332 24.9456,127.56016677083332 24.9456M123.32008677083333 27.44472C123.76936677083333 26.04072,125.25760677083332 25.84416,126.52120677083333 25.84416C129.30112677083332 25.84416,131.51944677083333 28.82064,131.51944677083333 31.2636C131.51944677083333 32.49912,130.98592677083332 33.6504,129.6661667708333 33.95928C129.27304677083333 34.071600000000004,128.82376677083332 34.12776,128.40256677083332 34.12776C126.94240677083333 34.12776,125.45416677083333 33.14496,124.61176677083333 32.02176C123.79744677083332 31.09512,123.20776677083333 29.7192,123.20776677083333 28.42752C123.20776677083333 28.09056,123.23584677083332 27.78168,123.32008677083333 27.44472"></path></g></g><g class="vf-modifiers"><g id="vf-auto1015"><text stroke-width="0.3" stroke-dasharray="none" fill="black" stroke="none" font-family="Arial, sans-serif" font-size="10pt" font-weight="normal" font-style="normal" x="119.20150025685628" y="102.29296875">A4</text></g></g></g><g class="vf-stavenote" id="vf-auto1016"><path stroke-width="1.4" stroke-dasharray="none" fill="none" stroke="#444" d="M179.94545083333333 30L203.01809083333333 30"></path><g class="vf-note" pointer-events="bounding-box"><g class="vf-notehead" pointer-events="bounding-box"><path stroke-width="0.3" stroke-dasharray="none" fill="black" stroke="none" d="M191.67833083333332 19.9456C186.31505083333332 19.9456,182.94545083333333 22.16392,182.94545083333333 24.91576C182.94545083333333 27.63952,185.24801083333332 30.0544,191.28521083333334 30.0544C197.91209083333334 30.0544,200.01809083333333 27.75184,200.01809083333333 24.91576C200.01809083333333 22.0516,195.44105083333332 19.9456,191.67833083333332 19.9456M187.4382508333333 22.44472C187.88753083333333 21.04072,189.37577083333332 20.84416,190.63937083333332 20.84416C193.41929083333332 20.84416,195.63761083333333 23.82064,195.63761083333333 26.2636C195.63761083333333 27.49912,195.10409083333332 28.6504,193.7843308333333 28.95928C193.39121083333333 29.0716,192.94193083333332 29.127760000000002,192.52073083333332 29.127760000000002C191.06057083333332 29.127760000000002,189.57233083333333 28.14496,188.72993083333333 27.02176C187.91561083333332 26.09512,187.32593083333333 24.7192,187.32593083333333 23.42752C187.32593083333333 23.09056,187.35401083333332 22.78168,187.4382508333333 22.44472"></path></g></g><g class="vf-modifiers"><g id="vf-auto1020"><text stroke-width="0.3" stroke-dasharray="none" fill="black" stroke="none" font-family="Arial, sans-serif" font-size="10pt" font-weight="normal" font-style="normal" x="183.32942708333331" y="102.29296875">B4</text></g></g></g><g class="vf-stavenote" id="vf-auto1021"><path stroke-width="1.4" stroke-dasharray="none" fill="none" stroke="#444" d="M244.06361489583333 30L267.1362548958333 30"></path><path stroke-width="1.4" stroke-dasharray="none" fill="none" stroke="#444" d="M244.06361489583333 20L267.1362548958333 20"></path><g class="vf-note" pointer-events="bounding-box"><g class="vf-notehead" pointer-events="bounding-box"><path stroke-width="0.3" stroke-dasharray="none" fill="black" stroke="none" d="M255.79649489583332 14.945599999999999C250.43321489583332 14.945599999999999,247.06361489583333 17.16392,247.06361489583333 19.91576C247.06361489583333 22.63952,249.36617489583332 25.0544,255.40337489583334 25.0544C262.0302548958333 25.0544,264.1362548958333 22.75184,264.1362548958333 19.91576C264.1362548958333 17.0516,259.55921489583335 14.945599999999999,255.79649489583332 14.945599999999999M251.5564148958333 17.44472C252.00569489583333 16.04072,253.49393489583332 15.844159999999999,254.75753489583332 15.844159999999999C257.5374548958333 15.844159999999999,259.7557748958333 18.82064,259.7557748958333 21.2636C259.7557748958333 22.49912,259.2222548958333 23.6504,257.90249489583334 23.95928C257.50937489583333 24.0716,257.06009489583334 24.127760000000002,256.63889489583335 24.127760000000002C255.17873489583332 24.127760000000002,253.69049489583333 23.14496,252.84809489583333 22.02176C252.03377489583332 21.09512,251.44409489583333 19.7192,251.44409489583333 18.42752C251.44409489583333 18.09056,251.47217489583332 17.78168,251.5564148958333 17.44472"></path></g></g><g class="vf-modifiers"><g id="vf-auto1025"><text stroke-width="0.3" stroke-dasharray="none" fill="black" stroke="none" font-family="Arial, sans-serif" font-size="10pt" font-weight="normal" font-style="normal" x="247.07649739583331" y="102.29296875">C5</text></g></g></g></svg>