<svg xmlns="http://www.w3.org/2000/svg" width="300" height="100" viewBox="0 0 300 100" style="width: 300px; height: 100px;"><g class="vf-stave" id="vf-auto1000"><path stroke-width="1" stroke-dasharray="none" fill="none" stroke="#999999" d="M10 30L290 30"></path><path stroke-width="1" stroke-dasharray="none" fill="none" stroke="#999999" d="M10 40L290 40"></path><path stroke-width="1" stroke-dasharray="none" fill="none" stroke="#999999" d="M10 50L290 50"></path><path stroke-width="1" stroke-dasharray="none" fill="none" stroke="#999999" d="M10 60L290 60"></path><path stroke-width="1" stroke-dasharray="none" fill="none" stroke="#999999" d="M10 70L290 70"></path><rect x="10" y="29.5" width="1" height="41" fill="black"></rect><rect x="290" y="29.5" width="1" height="41" fill="black"></rect><g class="vf-clef" id="vf-auto1003"><path stroke-width="0.3" stroke-dasharray="none" fill="black" stroke="none" d="M28.711104 45.844288C28.660416 45.41344,28.711104 45.388096,28.9392 45.16C32.892864 41.485119999999995,35.883456 36.847167999999996,35.883456 31.246143999999997C35.883456 28.078143999999995,34.996415999999996 24.935488,33.50112 22.755903999999994C32.943552 21.944896,32.005824000000004 20.931135999999995,31.60032 20.931135999999995C31.09344 20.931135999999995,29.95296 21.868863999999995,29.243328 22.679871999999996C26.53152 25.670463999999996,25.64448 30.232383999999996,25.64448 34.033984C25.64448 36.137536,25.923264000000003 38.519872,26.176704 40.015168C26.252736 40.446016,26.278080000000003 40.522048,25.847231999999998 40.902208C20.57568 45.236031999999994,15 50.456896,15 57.832C15 64.168,19.333824 70.199872,28.280256 70.199872C29.116608 70.199872,30.079680000000003 70.12384,30.814656 69.971776C31.194816000000003 69.89574400000001,31.270848 69.8704,31.346880000000002 70.301248C31.777728 72.759616,32.335296 75.927616,32.335296 77.651008C32.335296 83.04928000000001,28.685760000000002 83.708224,26.53152 83.708224C24.554688 83.708224,23.61696 83.12531200000001,23.61696 82.643776C23.61696 82.390336,23.946432 82.28896,24.782784 82.010176C25.923264000000003 81.680704,27.215808000000003 80.71763200000001,27.215808000000003 78.588736C27.215808000000003 76.58656,25.948608 74.863168,23.718336 74.863168C21.285312 74.863168,19.81536 76.814656,19.81536 79.070272C19.81536 81.42726400000001,21.234624 85.026112,26.759616 85.026112C29.19264 85.026112,33.931968 83.910976,33.931968 77.72704C33.931968 75.62348800000001,33.27302400000001 72.176704,32.892864 69.89574400000001C32.816832000000005 69.464896,32.842176 69.515584,33.349056000000004 69.287488C37.04928 67.817536,39.482304 64.725568,39.482304 60.594496C39.482304 55.9312,36.060864 51.800128,30.687936 51.800128C29.750208 51.800128,29.750208 51.800128,29.623488000000002 51.141183999999996M32.157888 26.582848C33.349056000000004 26.582848,34.337472000000005 27.571264,34.337472000000005 29.573439999999998C34.337472000000005 33.628479999999996,30.865344 36.923199999999994,28.001472 39.432255999999995C27.748032000000002 39.660352,27.595968 39.609663999999995,27.519936 39.128128C27.367872 38.1904,27.29184 36.948544,27.29184 35.78272C27.29184 30.080319999999997,29.927616 26.582848,32.157888 26.582848M28.17888 51.445312C28.280256 52.129599999999996,28.280256 52.104256,27.621312000000003 52.307007999999996C24.427968 53.3968,22.324416 56.286016000000004,22.324416 59.403328C22.324416 62.672704,24.047808 65.004352,26.53152 65.866048C26.835648 65.967424,27.266496 66.0688,27.519936 66.0688C27.798720000000003 66.0688,27.950784 65.891392,27.950784 65.663296C27.950784 65.409856,27.672 65.30848,27.41856 65.207104C25.872576000000002 64.54816,24.782784 62.976832,24.782784 61.304128C24.782784 59.200576,26.202048 57.654592,28.43232 57.020992C29.015232 56.868928,29.091264000000002 56.919616,29.167296 57.32512L30.992064 68.19769600000001C31.068096 68.6032,31.017408 68.6032,30.485184000000004 68.704576C29.902272000000004 68.805952,29.167296 68.881984,28.43232 68.881984C22.045632 68.881984,17.91456 65.33382399999999,17.91456 60.265024C17.91456 58.110784,18.29472 55.221568,21.310656 51.800128C23.515584 49.367104,25.188288 47.998528,26.886336 46.629952C27.266496 46.325824,27.342528 46.376512,27.41856 46.756671999999995M30.687936 57.249088C30.611904000000003 56.792896,30.662592000000004 56.69152,31.09344 56.742208C34.058688000000004 56.995648,36.49171200000001 59.47936,36.49171200000001 62.672704C36.49171200000001 64.979008,35.097792 66.82912,33.070272 67.868224C32.639424000000005 68.070976,32.563392 68.070976,32.48736 67.640128"></path></g><g class="vf-keysignature" id="vf-auto1005"><path stroke-width="0.3" stroke-dasharray="none" fill="black" stroke="none" d="M60.32976 25.3488C60.60336 25.23936,60.82224 24.91104,60.82224 24.69216L60.82224 21.87408C60.82224 21.682560000000002,60.68544 21.573120000000003,60.52128 21.573120000000003C60.46656 21.573120000000003,60.41184 21.573120000000003,60.32976 21.60048C60.32976 21.60048,59.53632 21.928800000000003,59.3448 21.95616C59.0712 21.95616,58.7976 21.76464,58.7976 21.46368L58.7976 16.64832C58.7976 16.402079999999998,58.55136 16.21056,58.2504 16.21056C57.86736 16.21056,57.62112 16.402079999999998,57.62112 16.64832L57.62112 21.76464C57.5664 22.14768,57.45696 22.66752,57.10128 22.91376C56.63616 23.187359999999998,55.295519999999996 23.734560000000002,54.61152 23.89872C54.2832 23.89872,54.1464 23.4336,54.1464 23.10528L54.1464 18.372C54.1464 18.15312,53.8728 17.934240000000003,53.599199999999996 17.934240000000003C53.21616 17.934240000000003,52.96992 18.15312,52.96992 18.372L52.96992 23.7072C52.96992 24.2544,52.72368 24.637439999999998,52.5048 24.74688C52.25856 24.88368,51.46512 25.18464,51.46512 25.18464C51.19152 25.26672,51 25.59504,51 25.81392L51 28.632C51 28.85088,51.10944 28.98768,51.35568 28.98768L51.43776 28.93296C51.46512 28.93296,52.06704 28.68672,52.368 28.54992L52.42272 28.4952C52.72368 28.4952,52.96992 28.9056,52.96992 29.20656L52.96992 33.11904C52.96992 33.5568,52.7784 33.91248,52.53216 34.02192C52.31328 34.104,51.46512 34.45968,51.46512 34.45968C51.19152 34.54176,51 34.84272,51 35.08896L51 37.87968C51 38.12592,51.10944 38.23536,51.35568 38.23536L51.43776 38.208C51.46512 38.208,52.01232 37.96176,52.368 37.85232C52.42272 37.7976,52.45008 37.7976,52.5048 37.7976C52.7784 37.7976,52.96992 38.23536,52.96992 38.42688L52.96992 43.2696C52.96992 43.51584,53.21616 43.70736,53.48976 43.70736C53.8728 43.70736,54.1464 43.51584,54.1464 43.2696L54.1464 37.7976C54.1464 37.27776,54.33792 37.00416,54.5568 36.92208L56.93712 35.93712C56.93712 35.93712,56.991839999999996 35.93712,56.991839999999996 35.93712L57.07392 35.90976C57.4296 35.90976,57.62112 36.37488,57.62112 36.62112L57.62112 41.545919999999995C57.62112 41.792159999999996,57.86736 41.98368,58.14096 41.98368C58.55136 41.98368,58.7976 41.792159999999996,58.7976 41.545919999999995L58.7976 35.93712C58.7976 35.63616,58.96176 35.17104,59.23536 35.03424C59.50896 34.9248,60.32976 34.59648,60.32976 34.59648C60.60336 34.48704,60.82224 34.18608,60.82224 33.93984L60.82224 31.14912C60.82224 30.9576,60.68544 30.8208,60.52128 30.8208C60.46656 30.8208,60.41184 30.8208,60.32976 30.87552L59.31744 31.25856C59.0712 31.25856,58.7976 31.01232,58.7976 30.5472L58.7976 26.88096C58.7976 26.60736,58.98912 25.86864,59.31744 25.73184M57.62112 31.7784C57.37488 32.57184,55.54176 33.33792,54.61152 33.33792C54.39264 33.33792,54.20112 33.2832,54.1464 33.1464C54.06432 32.98224,54.03696 32.13408,54.03696 31.17648C54.03696 29.97264,54.06432 28.577280000000002,54.1464 28.27632C54.22848 27.59232,56.03424 26.77152,57.0192 26.77152C57.2928 26.77152,57.53904 26.8536,57.62112 27.01776C57.7032 27.20928,57.78528 28.19424,57.78528 29.26128C57.78528 30.32832,57.7032 31.422719999999998,57.62112 31.7784"></path></g></g><g class="vf-stavenote" id="vf-auto1007"><g class="vf-note" pointer-events="bounding-box"><g class="vf-notehead" pointer-events="bounding-box"><path stroke-width="0.3" stroke-dasharray="none" fill="black" stroke="none" d="M82.55511999999999 54.9456C77.19184 54.9456,73.82224 57.16392,73.82224 59.91576C73.82224 62.63952,76.1248 65.0544,82.16199999999999 65.0544C88.78887999999999 65.0544,90.89488 62.75184,90.89488 59.91576C90.89488 57.0516,86.31783999999999 54.9456,82.55511999999999 54.9456M78.31504 57.44472C78.76432 56.04072,80.25255999999999 55.84416,81.51616 55.84416C84.29607999999999 55.84416,86.5144 58.82064,86.5144 61.2636C86.5144 62.49912,85.98088 63.6504,84.66112 63.95928C84.268 64.0716,83.81872 64.12776,83.39752 64.12776C81.93736 64.12776,80.44912 63.14496,79.60672 62.02176C78.79239999999999 61.09512,78.20272 59.7192,78.20272 58.42752C78.20272 58.090559999999996,78.23079999999999 57.78168,78.31504 57.44472"></path></g></g><g class="vf-modifiers"><g id="vf-auto1011"><text stroke-width="0.3" stroke-dasharray="none" fill="black" stroke="none" font-family="Arial, sans-serif" font-size="10pt" font-weight="normal" font-style="normal" x="77.17106" y="92.29296875">G</text></g></g></g><g class="vf-stavenote" id="vf-auto1012"><g class="vf-note" pointer-events="bounding-box"><g class="vf-notehead" pointer-events="bounding-box"><path stroke-width="0.3" stroke-dasharray="none" fill="black" stroke="none" d="M147.20717281249998 44.9456C141.84389281249997 44.9456,138.47429281249998 47.16392,138.47429281249998 49.91576C138.47429281249998 52.63952,140.77685281249998 55.0544,146.8140528125 55.0544C153.4409328125 55.0544,155.5469328125 52.75184,155.5469328125 49.91576C155.5469328125 47.0516,150.96989281249998 44.9456,147.20717281249998 44.9456M142.96709281249997 47.44472C143.4163728125 46.04072,144.90461281249998 45.84416,146.16821281249997 45.84416C148.94813281249998 45.84416,151.16645281249998 48.82064,151.16645281249998 51.2636C151.16645281249998 52.49912,150.63293281249997 53.6504,149.31317281249997 53.95928C148.9200528125 54.071600000000004,148.47077281249997 54.12776,148.04957281249997 54.12776C146.58941281249997 54.12776,145.10117281249998 53.14496,144.25877281249998 52.02176C143.44445281249997 51.09512,142.8547728125 49.7192,142.8547728125 48.42752C142.8547728125 48.090559999999996,142.88285281249998 47.78168,142.96709281249997 47.44472"></path></g></g><g class="vf-modifiers"><g id="vf-auto1016"><text stroke-width="0.3" stroke-dasharray="none" fill="black" stroke="none" font-family="Arial, sans-serif" font-size="10pt" font-weight="normal" font-style="normal" x="142.56139406249997" y="92.29296875">B</text></g></g></g><g class="vf-stavenote" id="vf-auto1017"><g class="vf-note" pointer-events="bounding-box"><g class="vf-notehead" pointer-events="bounding-box"><path stroke-width="0.3" stroke-dasharray="none" fill="black" stroke="none" d="M211.859225625 34.9456C206.495945625 34.9456,203.126345625 37.16392,203.126345625 39.91576C203.126345625 42.63952,205.428905625 45.0544,211.466105625 45.0544C218.092985625 45.0544,220.198985625 42.75184,220.198985625 39.91576C220.198985625 37.0516,215.621945625 34.9456,211.859225625 34.9456M207.619145625 37.44472C208.068425625 36.04072,209.556665625 35.84416,210.820265625 35.84416C213.600185625 35.84416,215.818505625 38.82064,215.818505625 41.2636C215.818505625 42.49912,215.284985625 43.6504,213.965225625 43.95928C213.572105625 44.071600000000004,213.122825625 44.12776,212.701625625 44.12776C211.241465625 44.12776,209.753225625 43.14496,208.910825625 42.02176C208.096505625 41.09512,207.506825625 39.7192,207.506825625 38.42752C207.506825625 38.090559999999996,207.534905625 37.78168,207.619145625 37.44472"></path></g></g><g class="vf-modifiers"><g id="vf-auto1021"><text stroke-width="0.3" stroke-dasharray="none" fill="black" stroke="none" font-family="Arial, sans-serif" font-size="10pt" font-weight="normal" font-style="normal" x="206.846259375" y="92.29296875">D</text></g></g></g><g class="vf-stavenote" id="vf-auto1022"><g class="vf-note" pointer-events="bounding-box"><g class="vf-notehead" pointer-events="bounding-box"><path stroke-width="0.3" stroke-dasharray="none" fill="black" stroke="none" d="M276.5112784375 24.9456C271.14799843749995 24.9456,267.77839843749996 27.16392,267.77839843749996 29.91576C267.77839843749996 32.63952,270.0809584375 35.0544,276.11815843749997 35.0544C282.74503843749994 35.0544,284.85103843749994 32.75184,284.85103843749994 29.91576C284.85103843749994 27.0516,280.2739984375 24.9456,276.5112784375 24.9456M272.27119843749995 27.44472C272.72047843749993 26.04072,274.20871843749995 25.84416,275.47231843749995 25.84416C278.25223843749995 25.84416,280.47055843749996 28.82064,280.47055843749996 31.2636C280.47055843749996 32.49912,279.93703843749995 33.6504,278.6172784375 33.95928C278.22415843749997 34.071600000000004,277.7748784375 34.12776,277.3536784375 34.12776C275.89351843749995 34.12776,274.4052784375 33.14496,273.56287843749993 32.02176C272.7485584375 31.09512,272.15887843749994 29.7192,272.15887843749994 28.42752C272.15887843749994 28.09056,272.1869584375 27.78168,272.27119843749995 27.44472"></path></g></g><g class="vf-modifiers"><g id="vf-auto1026"><text stroke-width="0.3" stroke-dasharray="none" fill="black" stroke="none" font-family="Arial, sans-serif" font-size="10pt" font-weight="normal" font-style="normal" x="268.53346843749995" y="92.29296875">F#</text></g></g></g></svg>