<svg xmlns="http://www.w3.org/2000/svg" width="300" height="100" viewBox="0 0 300 100" style="width: 300px; height: 100px;"><g class="vf-stave" id="vf-auto1000"><path stroke-width="1" stroke-dasharray="none" fill="none" stroke="#999999" d="M10 30L290 30"></path><path stroke-width="1" stroke-dasharray="none" fill="none" stroke="#999999" d="M10 40L290 40"></path><path stroke-width="1" stroke-dasharray="none" fill="none" stroke="#999999" d="M10 50L290 50"></path><path stroke-width="1" stroke-dasharray="none" fill="none" stroke="#999999" d="M10 60L290 60"></path><path stroke-width="1" stroke-dasharray="none" fill="none" stroke="#999999" d="M10 70L290 70"></path><rect x="10" y="29.5" width="1" height="41" fill="black"></rect><rect x="290" y="29.5" width="1" height="41" fill="black"></rect><g class="vf-clef" id="vf-auto1003"><path stroke-width="0.3" stroke-dasharray="none" fill="black" stroke="none" d="M28.711104 45.844288C28.660416 45.41344,28.711104 45.388096,28.9392 45.16C32.892864 41.485119999999995,35.883456 36.847167999999996,35.883456 31.246143999999997C35.883456 28.078143999999995,34.996415999999996 24.935488,33.50112 22.755903999999994C32.943552 21.944896,32.005824000000004 20.931135999999995,31.60032 20.931135999999995C31.09344 20.931135999999995,29.95296 21.868863999999995,29.243328 22.679871999999996C26.53152 25.670463999999996,25.64448 30.232383999999996,25.64448 34.033984C25.64448 36.137536,25.923264000000003 38.519872,26.176704 40.015168C26.252736 40.446016,26.278080000000003 40.522048,25.847231999999998 40.902208C20.57568 45.236031999999994,15 50.456896,15 57.832C15 64.168,19.333824 70.199872,28.280256 70.199872C29.116608 70.199872,30.079680000000003 70.12384,30.814656 69.971776C31.194816000000003 69.89574400000001,31.270848 69.8704,31.346880000000002 70.301248C31.777728 72.759616,32.335296 75.927616,32.335296 77.651008C32.335296 83.04928000000001,28.685760000000002 83.708224,26.53152 83.708224C24.554688 83.708224,23.61696 83.12531200000001,23.61696 82.643776C23.61696 82.390336,23.946432 82.28896,24.782784 82.010176C25.923264000000003 81.680704,27.215808000000003 80.71763200000001,27.215808000000003 78.588736C27.215808000000003 76.58656,25.948608 74.863168,23.718336 74.863168C21.285312 74.863168,19.81536 76.814656,19.81536 79.070272C19.81536 81.42726400000001,21.234624 85.026112,26.759616 85.026112C29.19264 85.026112,33.931968 83.910976,33.931968 77.72704C33.931968 75.62348800000001,33.27302400000001 72.176704,32.892864 69.89574400000001C32.816832000000005 69.464896,32.842176 69.515584,33.349056000000004 69.287488C37.04928 67.817536,39.482304 64.725568,39.482304 60.594496C39.482304 55.9312,36.060864 51.800128,30.687936 51.800128C29.750208 51.800128,29.750208 51.800128,29.623488000000002 51.141183999999996M32.157888 26.582848C33.349056000000004 26.582848,34.337472000000005 27.571264,34.337472000000005 29.573439999999998C34.337472000000005 33.628479999999996,30.865344 36.923199999999994,28.001472 39.432255999999995C27.748032000000002 39.660352,27.595968 39.609663999999995,27.519936 39.128128C27.367872 38.1904,27.29184 36.948544,27.29184 35.78272C27.29184 30.080319999999997,29.927616 26.582848,32.157888 26.582848M28.17888 51.445312C28.280256 52.129599999999996,28.280256 52.104256,27.621312000000003 52.307007999999996C24.427968 53.3968,22.324416 56.286016000000004,22.324416 59.403328C22.324416 62.672704,24.047808 65.004352,26.53152 65.866048C26.835648 65.967424,27.266496 66.0688,27.519936 66.0688C27.798720000000003 66.0688,27.950784 65.891392,27.950784 65.663296C27.950784 65.409856,27.672 65.30848,27.41856 65.207104C25.872576000000002 64.54816,24.782784 62.976832,24.782784 61.304128C24.782784 59.200576,26.202048 57.654592,28.43232 57.020992C29.015232 56.868928,29.091264000000002 56.919616,29.167296 57.32512L30.992064 68.19769600000001C31.068096 68.6032,31.017408 68.6032,30.485184000000004 68.704576C29.902272000000004 68.805952,29.167296 68.881984,28.43232 68.881984C22.045632 68.881984,17.91456 65.33382399999999,17.91456 60.265024C17.91456 58.110784,18.29472 55.221568,21.310656 51.800128C23.515584 49.367104,25.188288 47.998528,26.886336 46.629952C27.266496 46.325824,27.342528 46.376512,27.41856 46.756671999999995M30.687936 57.249088C30.611904000000003 56.792896,30.662592000000004 56.69152,31.09344 56.742208C34.058688000000004 56.995648,36.49171200000001 59.47936,36.49171200000001 62.672704C36.49171200000001 64.979008,35.097792 66.82912,33.070272 67.868224C32.639424000000005 68.070976,32.563392 68.070976,32.48736 67.640128"></path></g></g><g class="vf-stavenote" id="vf-auto1005"><g class="vf-note" pointer-events="bounding-box"><g class="vf-notehead" pointer-events="bounding-box"><path stroke-width="0.3" stroke-dasharray="none" fill="black" stroke="none" d="M61.73288 39.9456C56.3696 39.9456,53 42.16392,53 44.91576C53 47.63952,55.30256 50.0544,61.33976 50.0544C67.96664 50.0544,70.07264 47.75184,70.07264 44.91576C70.07264 42.0516,65.4956 39.9456,61.73288 39.9456M57.4928 42.44472C57.94208 41.04072,59.43032 40.84416,60.69392 40.84416C63.47384 40.84416,65.69216 43.82064,65.69216 46.2636C65.69216 47.49912,65.15864 48.6504,63.83888 48.95928C63.44576 49.071600000000004,62.99648 49.12776,62.57528 49.12776C61.115120000000005 49.12776,59.62688 48.14496,58.78448 47.02176C57.97016 46.09512,57.38048 44.7192,57.38048 43.42752C57.38048 43.090559999999996,57.40856 42.78168,57.4928 42.44472"></path></g></g><g class="vf-modifiers"><g id="vf-auto1009"><text stroke-width="0.3" stroke-dasharray="none" fill="black" stroke="none" font-family="Arial, sans-serif" font-size="10pt" font-weight="normal" font-style="normal" x="56.71991375" y="92.29296875">C</text></g></g></g><g class="vf-stavenote" id="vf-auto1010"><g class="vf-note" pointer-events="bounding-box"><g class="vf-notehead" pointer-events="bounding-box"><path stroke-width="0.3" stroke-dasharray="none" fill="black" stroke="none" d="M130.14768 39.9456C124.7844 39.9456,121.4148 42.16392,121.4148 44.91576C121.4148 47.63952,123.71736 50.0544,129.75456 50.0544C136.38144 50.0544,138.48744 47.75184,138.48744 44.91576C138.48744 42.0516,133.9104 39.9456,130.14768 39.9456M125.9076 42.44472C126.35688 41.04072,127.84512 40.84416,129.10872 40.84416C131.88864 40.84416,134.10696000000002 43.82064,134.10696000000002 46.2636C134.10696000000002 47.49912,133.57344 48.6504,132.25368 48.95928C131.86056 49.071600000000004,131.41128 49.12776,130.99008 49.12776C129.52992 49.12776,128.04167999999999 48.14496,127.19928 47.02176C126.38496 46.09512,125.79528 44.7192,125.79528 43.42752C125.79528 43.090559999999996,125.82336 42.78168,125.9076 42.44472"></path></g></g><g class="vf-modifiers"><path stroke-width="0.3" stroke-dasharray="none" fill="black" stroke="none" d="M117.92232000000001 40.3488C118.19592 40.23936,118.4148 39.91104,118.4148 39.69216L118.4148 36.87408C118.4148 36.68256,118.278 36.57312,118.11384000000001 36.57312C118.05912000000001 36.57312,118.0044 36.57312,117.92232000000001 36.600480000000005C117.92232000000001 36.600480000000005,117.12888000000001 36.9288,116.93736000000001 36.95616C116.66376000000001 36.95616,116.39016000000001 36.76464,116.39016000000001 36.46368L116.39016000000001 31.64832C116.39016000000001 31.402079999999998,116.14392000000001 31.21056,115.84296 31.21056C115.45992000000001 31.21056,115.21368000000001 31.402079999999998,115.21368000000001 31.64832L115.21368000000001 36.76464C115.15896000000001 37.14768,115.04952 37.66752,114.69384000000001 37.913759999999996C114.22872000000001 38.18736,112.88808 38.73456,112.20408 38.89872C111.87576 38.89872,111.73896 38.4336,111.73896 38.10528L111.73896 33.372C111.73896 33.15312,111.46536 32.93424,111.19176 32.93424C110.80872000000001 32.93424,110.56248000000001 33.15312,110.56248000000001 33.372L110.56248000000001 38.7072C110.56248000000001 39.254400000000004,110.31624000000001 39.63744,110.09736000000001 39.74688C109.85112000000001 39.88368,109.05768 40.18464,109.05768 40.18464C108.78408 40.26672,108.59256 40.59504,108.59256 40.81392L108.59256 43.632C108.59256 43.850880000000004,108.70200000000001 43.98768,108.94824000000001 43.98768L109.03032 43.93296C109.05768 43.93296,109.65960000000001 43.68672,109.96056 43.54992L110.01528 43.4952C110.31624000000001 43.4952,110.56248000000001 43.9056,110.56248000000001 44.20656L110.56248000000001 48.11904C110.56248000000001 48.5568,110.37096000000001 48.91248,110.12472000000001 49.02192C109.90584000000001 49.104,109.05768 49.45968,109.05768 49.45968C108.78408 49.54176,108.59256 49.84272,108.59256 50.08896L108.59256 52.87968C108.59256 53.12592,108.70200000000001 53.23536,108.94824000000001 53.23536L109.03032 53.208C109.05768 53.208,109.60488000000001 52.96176,109.96056 52.85232C110.01528 52.7976,110.04264 52.7976,110.09736000000001 52.7976C110.37096000000001 52.7976,110.56248000000001 53.23536,110.56248000000001 53.42688L110.56248000000001 58.2696C110.56248000000001 58.51584,110.80872000000001 58.70736,111.08232000000001 58.70736C111.46536 58.70736,111.73896 58.51584,111.73896 58.2696L111.73896 52.7976C111.73896 52.27776,111.93048 52.00416,112.14936 51.92208L114.52968000000001 50.93712C114.52968000000001 50.93712,114.5844 50.93712,114.5844 50.93712L114.66648 50.90976C115.02216 50.90976,115.21368000000001 51.37488,115.21368000000001 51.62112L115.21368000000001 56.545919999999995C115.21368000000001 56.792159999999996,115.45992000000001 56.98368,115.73352 56.98368C116.14392000000001 56.98368,116.39016000000001 56.792159999999996,116.39016000000001 56.545919999999995L116.39016000000001 50.93712C116.39016000000001 50.63616,116.55432 50.17104,116.82792 50.03424C117.10152000000001 49.9248,117.92232000000001 49.59648,117.92232000000001 49.59648C118.19592 49.48704,118.4148 49.18608,118.4148 48.93984L118.4148 46.149119999999996C118.4148 45.9576,118.278 45.8208,118.11384000000001 45.8208C118.05912000000001 45.8208,118.0044 45.8208,117.92232000000001 45.87552L116.91000000000001 46.25856C116.66376000000001 46.25856,116.39016000000001 46.01232,116.39016000000001 45.5472L116.39016000000001 41.88096C116.39016000000001 41.60736,116.58168 40.86864,116.91000000000001 40.73184M115.21368000000001 46.7784C114.96744000000001 47.57184,113.13432 48.33792,112.20408 48.33792C111.9852 48.33792,111.79368000000001 48.2832,111.73896 48.1464C111.65688 47.98224,111.62952 47.13408,111.62952 46.17648C111.62952 44.97264,111.65688 43.57728,111.73896 43.27632C111.82104000000001 42.59232,113.6268 41.77152,114.61176 41.77152C114.88536 41.77152,115.1316 41.8536,115.21368000000001 42.01776C115.29576 42.20928,115.37784 43.19424,115.37784 44.26128C115.37784 45.32832,115.29576 46.42272,115.21368000000001 46.7784"></path><g id="vf-auto1016"><text stroke-width="0.3" stroke-dasharray="none" fill="black" stroke="none" font-family="Arial, sans-serif" font-size="10pt" font-weight="normal" font-style="normal" x="121.4276825" y="92.29296875">C#</text></g></g></g><g class="vf-stavenote" id="vf-auto1017"><g class="vf-note" pointer-events="bounding-box"><g class="vf-notehead" pointer-events="bounding-box"><path stroke-width="0.3" stroke-dasharray="none" fill="black" stroke="none" d="M198.56248 39.9456C193.1992 39.9456,189.8296 42.16392,189.8296 44.91576C189.8296 47.63952,192.13216 50.0544,198.16936 50.0544C204.79624 50.0544,206.90224 47.75184,206.90224 44.91576C206.90224 42.0516,202.3252 39.9456,198.56248 39.9456M194.3224 42.44472C194.77168 41.04072,196.25992 40.84416,197.52352 40.84416C200.30344 40.84416,202.52176 43.82064,202.52176 46.2636C202.52176 47.49912,201.98824 48.6504,200.66848 48.95928C200.27536 49.071600000000004,199.82608 49.12776,199.40488 49.12776C197.94472 49.12776,196.45648 48.14496,195.61408 47.02176C194.79976 46.09512,194.21008 44.7192,194.21008 43.42752C194.21008 43.090559999999996,194.23816 42.78168,194.3224 42.44472"></path></g></g><g class="vf-modifiers"><g id="vf-auto1021"><text stroke-width="0.3" stroke-dasharray="none" fill="black" stroke="none" font-family="Arial, sans-serif" font-size="10pt" font-weight="normal" font-style="normal" x="189.8424825" y="92.29296875">C#</text></g></g></g><g class="vf-stavenote" id="vf-auto1022"><g class="vf-note" pointer-events="bounding-box"><g class="vf-notehead" pointer-events="bounding-box"><path stroke-width="0.3" stroke-dasharray="none" fill="black" stroke="none" d="M266.97728 39.9456C261.614 39.9456,258.2444 42.16392,258.2444 44.91576C258.2444 47.63952,260.54696 50.0544,266.58416 50.0544C273.21103999999997 50.0544,275.31703999999996 47.75184,275.31703999999996 44.91576C275.31703999999996 42.0516,270.74 39.9456,266.97728 39.9456M262.7372 42.44472C263.18647999999996 41.04072,264.67472 40.84416,265.93832 40.84416C268.71824 40.84416,270.93656 43.82064,270.93656 46.2636C270.93656 47.49912,270.40304 48.6504,269.08328 48.95928C268.69016 49.071600000000004,268.24088 49.12776,267.81968 49.12776C266.35952 49.12776,264.87127999999996 48.14496,264.02887999999996 47.02176C263.21456 46.09512,262.62487999999996 44.7192,262.62487999999996 43.42752C262.62487999999996 43.090559999999996,262.65296 42.78168,262.7372 42.44472"></path></g></g><g class="vf-modifiers"><path stroke-width="0.3" stroke-dasharray="none" fill="black" stroke="none" d="M254.17736 37.85904C254.09528 37.85904,254.06792 37.913759999999996,254.01319999999998 37.913759999999996C254.01319999999998 37.913759999999996,251.49608 38.81664,250.48376 38.81664C250.23752 38.81664,250.07336 38.76192,250.07336 38.62512L250.07336 32.03136C250.07336 31.75776,249.85448 31.56624,249.60824 31.56624L249.0884 31.56624C248.8148 31.56624,248.62328 31.75776,248.62328 32.03136L248.62328 52.33248C248.62328 52.55136,248.73272 52.688159999999996,248.97896 52.688159999999996L249.06104 52.63344C249.0884 52.63344,249.17048 52.63344,249.2252 52.60608C249.7724 52.35984,251.9612 51.4296,253.11032 51.4296C253.52071999999998 51.4296,253.79432 51.53904,253.79432 51.86736L253.79432 57.7224C253.79432 57.995999999999995,253.98584 58.18752,254.25943999999998 58.18752L254.77928 58.18752C254.99815999999998 58.18752,255.24439999999998 57.995999999999995,255.24439999999998 57.7224L255.24439999999998 37.94112C255.24439999999998 37.7496,255.08024 37.64016,254.91608 37.64016C254.88872 37.64016,254.80664 37.64016,254.77928 37.66752M250.07336 43.46784C250.07336 42.92064,252.48104 41.88096,253.43864 41.88096C253.65752 41.88096,253.79432 41.93568,253.79432 42.07248L253.79432 46.149119999999996C253.79432 46.86048,251.55079999999998 47.76336,250.56583999999998 47.76336C250.26488 47.76336,250.07336 47.68128,250.07336 47.51712"></path><g id="vf-auto1028"><text stroke-width="0.3" stroke-dasharray="none" fill="black" stroke="none" font-family="Arial, sans-serif" font-size="10pt" font-weight="normal" font-style="normal" x="261.96431375" y="92.29296875">C</text></g></g></g></svg>