<svg xmlns="http://www.w3.org/2000/svg" width="300" height="100" viewBox="0 0 300 100" style="width: 300px; height: 100px;"><g class="vf-stave" id="vf-auto1000"><path stroke-width="1" stroke-dasharray="none" fill="none" stroke="#999999" d="M10 30L290 30"></path><path stroke-width="1" stroke-dasharray="none" fill="none" stroke="#999999" d="M10 40L290 40"></path><path stroke-width="1" stroke-dasharray="none" fill="none" stroke="#999999" d="M10 50L290 50"></path><path stroke-width="1" stroke-dasharray="none" fill="none" stroke="#999999" d="M10 60L290 60"></path><path stroke-width="1" stroke-dasharray="none" fill="none" stroke="#999999" d="M10 70L290 70"></path><rect x="10" y="29.5" width="1" height="41" fill="black"></rect><rect x="290" y="29.5" width="1" height="41" fill="black"></rect><g class="vf-clef" id="vf-auto1003"><path stroke-width="0.3" stroke-dasharray="none" fill="black" stroke="none" d="M28.711104 45.844288C28.660416 45.41344,28.711104 45.388096,28.9392 45.16C32.892864 41.485119999999995,35.883456 36.847167999999996,35.883456 31.246143999999997C35.883456 28.078143999999995,34.996415999999996 24.935488,33.50112 22.755903999999994C32.943552 21.944896,32.005824000000004 20.931135999999995,31.60032 20.931135999999995C31.09344 20.931135999999995,29.95296 21.868863999999995,29.243328 22.679871999999996C26.53152 25.670463999999996,25.64448 30.232383999999996,25.64448 34.033984C25.64448 36.137536,25.923264000000003 38.519872,26.176704 40.015168C26.252736 40.446016,26.278080000000003 40.522048,25.847231999999998 40.902208C20.57568 45.236031999999994,15 50.456896,15 57.832C15 64.168,19.333824 70.199872,28.280256 70.199872C29.116608 70.199872,30.079680000000003 70.12384,30.814656 69.971776C31.194816000000003 69.89574400000001,31.270848 69.8704,31.346880000000002 70.301248C31.777728 72.759616,32.335296 75.927616,32.335296 77.651008C32.335296 83.04928000000001,28.685760000000002 83.708224,26.53152 83.708224C24.554688 83.708224,23.61696 83.12531200000001,23.61696 82.643776C23.61696 82.390336,23.946432 82.28896,24.782784 82.010176C25.923264000000003 81.680704,27.215808000000003 80.71763200000001,27.215808000000003 78.588736C27.215808000000003 76.58656,25.948608 74.863168,23.718336 74.863168C21.285312 74.863168,19.81536 76.814656,19.81536 79.070272C19.81536 81.42726400000001,21.234624 85.026112,26.759616 85.026112C29.19264 85.026112,33.931968 83.910976,33.931968 77.72704C33.931968 75.62348800000001,33.27302400000001 72.176704,32.892864 69.89574400000001C32.816832000000005 69.464896,32.842176 69.515584,33.349056000000004 69.287488C37.04928 67.817536,39.482304 64.725568,39.482304 60.594496C39.482304 55.9312,36.060864 51.800128,30.687936 51.800128C29.750208 51.800128,29.750208 51.800128,29.623488000000002 51.141183999999996M32.157888 26.582848C33.349056000000004 26.582848,34.337472000000005 27.571264,34.337472000000005 29.573439999999998C34.337472000000005 33.628479999999996,30.865344 36.923199999999994,28.001472 39.432255999999995C27.748032000000002 39.660352,27.595968 39.609663999999995,27.519936 39.128128C27.367872 38.1904,27.29184 36.948544,27.29184 35.78272C27.29184 30.080319999999997,29.927616 26.582848,32.157888 26.582848M28.17888 51.445312C28.280256 52.129599999999996,28.280256 52.104256,27.621312000000003 52.307007999999996C24.427968 53.3968,22.324416 56.286016000000004,22.324416 59.403328C22.324416 62.672704,24.047808 65.004352,26.53152 65.866048C26.835648 65.967424,27.266496 66.0688,27.519936 66.0688C27.798720000000003 66.0688,27.950784 65.891392,27.950784 65.663296C27.950784 65.409856,27.672 65.30848,27.41856 65.207104C25.872576000000002 64.54816,24.782784 62.976832,24.782784 61.304128C24.782784 59.200576,26.202048 57.654592,28.43232 57.020992C29.015232 56.868928,29.091264000000002 56.919616,29.167296 57.32512L30.992064 68.19769600000001C31.068096 68.6032,31.017408 68.6032,30.485184000000004 68.704576C29.902272000000004 68.805952,29.167296 68.881984,28.43232 68.881984C22.045632 68.881984,17.91456 65.33382399999999,17.91456 60.265024C17.91456 58.110784,18.29472 55.221568,21.310656 51.800128C23.515584 49.367104,25.188288 47.998528,26.886336 46.629952C27.266496 46.325824,27.342528 46.376512,27.41856 46.756671999999995M30.687936 57.249088C30.611904000000003 56.792896,30.662592000000004 56.69152,31.09344 56.742208C34.058688000000004 56.995648,36.49171200000001 59.47936,36.49171200000001 62.672704C36.49171200000001 64.979008,35.097792 66.82912,33.070272 67.868224C32.639424000000005 68.070976,32.563392 68.070976,32.48736 67.640128"></path></g></g><g class="vf-stavenote" id="vf-auto1005"><g class="vf-note" pointer-events="bounding-box"><g class="vf-notehead" pointer-events="bounding-box"><path stroke-width="0.3" stroke-dasharray="none" fill="black" stroke="none" d="M61.73288 64.9456C56.3696 64.9456,53 67.16392,53 69.91576C53 72.63952,55.30256 75.0544,61.33976 75.0544C67.96664 75.0544,70.07264 72.75184,70.07264 69.91576C70.07264 67.0516,65.4956 64.9456,61.73288 64.9456M57.4928 67.44472C57.94208 66.04072,59.43032 65.84416,60.69392 65.84416C63.47384 65.84416,65.69216 68.82064,65.69216 71.2636C65.69216 72.49912,65.15864 73.6504,63.83888 73.95928C63.44576 74.0716,62.99648 74.12776,62.57528 74.12776C61.115120000000005 74.12776,59.62688 73.14496,58.78448 72.02176C57.97016 71.09512,57.38048 69.7192,57.38048 68.42752C57.38048 68.09056,57.40856 67.78168,57.4928 67.44472"></path></g></g><g class="vf-modifiers"><g id="vf-auto1009"><text stroke-width="0.3" stroke-dasharray="none" fill="black" stroke="none" font-family="Arial, sans-serif" font-size="10pt" font-weight="normal" font-style="normal" x="57.08710125" y="92.29296875">E</text></g></g></g><g class="vf-stavenote" id="vf-auto1010"><g class="vf-note" pointer-events="bounding-box"><g class="vf-notehead" pointer-events="bounding-box"><path stroke-width="0.3" stroke-dasharray="none" fill="black" stroke="none" d="M113.7554464 54.9456C108.39216640000001 54.9456,105.0225664 57.16392,105.0225664 59.91576C105.0225664 62.63952,107.3251264 65.0544,113.3623264 65.0544C119.9892064 65.0544,122.0952064 62.75184,122.0952064 59.91576C122.0952064 57.0516,117.5181664 54.9456,113.7554464 54.9456M109.5153664 57.44472C109.9646464 56.04072,111.4528864 55.84416,112.71648640000001 55.84416C115.4964064 55.84416,117.7147264 58.82064,117.7147264 61.2636C117.7147264 62.49912,117.18120640000001 63.6504,115.8614464 63.95928C115.4683264 64.0716,115.01904640000001 64.12776,114.59784640000001 64.12776C113.1376864 64.12776,111.6494464 63.14496,110.8070464 62.02176C109.99272640000001 61.09512,109.40304640000001 59.7192,109.40304640000001 58.42752C109.40304640000001 58.090559999999996,109.4311264 57.78168,109.5153664 57.44472"></path></g></g><g class="vf-modifiers"><g id="vf-auto1014"><text stroke-width="0.3" stroke-dasharray="none" fill="black" stroke="none" font-family="Arial, sans-serif" font-size="10pt" font-weight="normal" font-style="normal" x="108.3713864" y="92.29296875">G</text></g></g></g><g class="vf-stavenote" id="vf-auto1015"><g class="vf-note" pointer-events="bounding-box"><g class="vf-notehead" pointer-events="bounding-box"><path stroke-width="0.3" stroke-dasharray="none" fill="black" stroke="none" d="M165.7780128 44.9456C160.4147328 44.9456,157.0451328 47.16392,157.0451328 49.91576C157.0451328 52.63952,159.3476928 55.0544,165.38489280000002 55.0544C172.01177280000002 55.0544,174.1177728 52.75184,174.1177728 49.91576C174.1177728 47.0516,169.5407328 44.9456,165.7780128 44.9456M161.5379328 47.44472C161.9872128 46.04072,163.4754528 45.84416,164.7390528 45.84416C167.5189728 45.84416,169.7372928 48.82064,169.7372928 51.2636C169.7372928 52.49912,169.2037728 53.6504,167.8840128 53.95928C167.4908928 54.071600000000004,167.0416128 54.12776,166.6204128 54.12776C165.1602528 54.12776,163.6720128 53.14496,162.8296128 52.02176C162.0152928 51.09512,161.4256128 49.7192,161.4256128 48.42752C161.4256128 48.090559999999996,161.4536928 47.78168,161.5379328 47.44472"></path></g></g><g class="vf-modifiers"><g id="vf-auto1019"><text stroke-width="0.3" stroke-dasharray="none" fill="black" stroke="none" font-family="Arial, sans-serif" font-size="10pt" font-weight="normal" font-style="normal" x="161.13223405" y="92.29296875">B</text></g></g></g><g class="vf-stavenote" id="vf-auto1020"><g class="vf-note" pointer-events="bounding-box"><g class="vf-notehead" pointer-events="bounding-box"><path stroke-width="0.3" stroke-dasharray="none" fill="black" stroke="none" d="M217.8005792 34.9456C212.43729919999998 34.9456,209.0676992 37.16392,209.0676992 39.91576C209.0676992 42.63952,211.3702592 45.0544,217.4074592 45.0544C224.0343392 45.0544,226.1403392 42.75184,226.1403392 39.91576C226.1403392 37.0516,221.5632992 34.9456,217.8005792 34.9456M213.56049919999998 37.44472C214.0097792 36.04072,215.4980192 35.84416,216.76161919999998 35.84416C219.5415392 35.84416,221.7598592 38.82064,221.7598592 41.2636C221.7598592 42.49912,221.22633919999998 43.6504,219.90657919999998 43.95928C219.5134592 44.071600000000004,219.06417919999998 44.12776,218.64297919999998 44.12776C217.18281919999998 44.12776,215.6945792 43.14496,214.8521792 42.02176C214.03785919999999 41.09512,213.4481792 39.7192,213.4481792 38.42752C213.4481792 38.090559999999996,213.4762592 37.78168,213.56049919999998 37.44472"></path></g></g><g class="vf-modifiers"><g id="vf-auto1024"><text stroke-width="0.3" stroke-dasharray="none" fill="black" stroke="none" font-family="Arial, sans-serif" font-size="10pt" font-weight="normal" font-style="normal" x="212.78761294999998" y="92.29296875">D</text></g></g></g><g class="vf-stavenote" id="vf-auto1025"><g class="vf-note" pointer-events="bounding-box"><g class="vf-notehead" pointer-events="bounding-box"><path stroke-width="0.3" stroke-dasharray="none" fill="black" stroke="none" d="M269.82314560000003 24.9456C264.4598656 24.9456,261.0902656 27.16392,261.0902656 29.91576C261.0902656 32.63952,263.39282560000004 35.0544,269.4300256 35.0544C276.0569056 35.0544,278.1629056 32.75184,278.1629056 29.91576C278.1629056 27.0516,273.58586560000003 24.9456,269.82314560000003 24.9456M265.5830656 27.44472C266.0323456 26.04072,267.5205856 25.84416,268.7841856 25.84416C271.5641056 25.84416,273.7824256 28.82064,273.7824256 31.2636C273.7824256 32.49912,273.2489056 33.6504,271.9291456 33.95928C271.5360256 34.071600000000004,271.08674560000003 34.12776,270.66554560000003 34.12776C269.2053856 34.12776,267.7171456 33.14496,266.8747456 32.02176C266.06042560000003 31.09512,265.4707456 29.7192,265.4707456 28.42752C265.4707456 28.09056,265.49882560000003 27.78168,265.5830656 27.44472"></path></g></g><g class="vf-modifiers"><g id="vf-auto1029"><text stroke-width="0.3" stroke-dasharray="none" fill="black" stroke="none" font-family="Arial, sans-serif" font-size="10pt" font-weight="normal" font-style="normal" x="265.55236685" y="92.29296875">F</text></g></g></g></svg>