<?xml version="1.0" encoding="utf-8"?>
<svg viewBox="0 0 180 180" width="180px" height="180px" preserveAspectRatio="xMidYMid slice" xmlns="http://www.w3.org/2000/svg" xmlns:bx="https://boxy-svg.com">
  <defs>
    <bx:grid x="508.092" y="510.48" width="500" height="500.025"/>
  </defs>
  <rect style="fill: rgb(255, 255, 255); stroke: rgb(0, 0, 0);" width="178" height="178.009" rx="35" ry="35" y="1" x="1"/>
  <rect x="5.753" width="14.406" height="13.721" style="fill: rgb(216, 216, 216); stroke: rgb(0, 0, 0);" y="79.415"/>
  <rect x="22.298" width="24.139" height="13.721" style="fill: rgb(216, 216, 216); stroke: rgb(0, 0, 0);" y="79.415"/>
  <rect x="48.576" width="24.139" height="13.721" style="fill: rgb(216, 216, 216); stroke: rgb(0, 0, 0);" y="79.415"/>
  <rect x="74.855" width="24.139" height="13.721" style="fill: rgb(216, 216, 216); stroke: rgb(0, 0, 0);" y="79.415"/>
  <rect x="101.133" width="24.139" height="13.721" style="fill: rgb(216, 216, 216); stroke: rgb(0, 0, 0);" y="79.415"/>
  <rect x="101.133" width="24.139" height="13.721" style="fill: rgb(216, 216, 216); stroke: rgb(0, 0, 0);" y="79.415"/>
  <rect x="127.411" width="24.139" height="13.721" style="fill: rgb(216, 216, 216); stroke: rgb(0, 0, 0);" y="79.415"/>
  <rect x="153.689" width="21.102" height="13.721" style="fill: rgb(216, 216, 216); stroke: rgb(0, 0, 0);" y="79.415"/>
  <rect x="5.35" y="96.151" width="27.077" height="13.721" style="fill: rgb(216, 216, 216); stroke: rgb(0, 0, 0);"/>
  <rect x="34.567" y="96.151" width="24.139" height="13.721" style="fill: rgb(216, 216, 216); stroke: rgb(0, 0, 0);"/>
  <rect x="60.845" y="96.151" width="24.139" height="13.721" style="fill: rgb(216, 216, 216); stroke: rgb(0, 0, 0);"/>
  <rect x="87.122" y="96.151" width="24.139" height="13.721" style="fill: rgb(216, 216, 216); stroke: rgb(0, 0, 0);"/>
  <rect x="113.401" y="96.151" width="24.139" height="13.721" style="fill: rgb(216, 216, 216); stroke: rgb(0, 0, 0);"/>
  <rect x="139.679" y="96.151" width="24.139" height="13.721" style="fill: rgb(216, 216, 216); stroke: rgb(0, 0, 0);"/>
  <rect x="165.956" y="96.151" width="7.79" height="13.721" style="fill: rgb(216, 216, 216); stroke: rgb(0, 0, 0);"/>
  <rect x="5.16" y="112.436" width="14.858" height="13.721" style="fill: rgb(216, 216, 216); stroke: rgb(0, 0, 0);"/>
  <rect x="22.157" y="112.436" width="24.139" height="13.721" style="fill: rgb(216, 216, 216); stroke: rgb(0, 0, 0);"/>
  <rect x="48.435" y="112.436" width="24.139" height="13.721" style="fill: rgb(216, 216, 216); stroke: rgb(0, 0, 0);"/>
  <rect x="74.713" y="112.436" width="24.139" height="13.721" style="fill: rgb(216, 216, 216); stroke: rgb(0, 0, 0);"/>
  <rect x="100.992" y="112.436" width="24.139" height="13.721" style="fill: rgb(216, 216, 216); stroke: rgb(0, 0, 0);"/>
  <rect x="100.992" y="112.436" width="24.139" height="13.721" style="fill: rgb(216, 216, 216); stroke: rgb(0, 0, 0);"/>
  <rect x="127.268" y="112.436" width="24.139" height="13.721" style="fill: rgb(216, 216, 216); stroke: rgb(0, 0, 0);"/>
  <rect x="153.547" y="112.436" width="20.527" height="13.721" style="fill: rgb(216, 216, 216); stroke: rgb(0, 0, 0);"/>
  <rect x="5.545" y="129.171" width="26.742" height="13.721" style="fill: rgb(216, 216, 216); stroke: rgb(0, 0, 0);"/>
  <rect x="34.426" y="129.171" width="24.139" height="13.721" style="fill: rgb(216, 216, 216); stroke: rgb(0, 0, 0);"/>
  <rect x="60.704" y="129.171" width="24.139" height="13.721" style="fill: rgb(216, 216, 216); stroke: rgb(0, 0, 0);"/>
  <rect x="86.982" y="129.171" width="24.139" height="13.721" style="fill: rgb(216, 216, 216); stroke: rgb(0, 0, 0);"/>
  <rect x="113.26" y="129.171" width="24.139" height="13.721" style="fill: rgb(216, 216, 216); stroke: rgb(0, 0, 0);"/>
  <rect x="139.539" y="129.171" width="24.139" height="13.721" style="fill: rgb(216, 216, 216); stroke: rgb(0, 0, 0);"/>
  <rect x="165.815" y="129.171" width="8.062" height="13.721" style="fill: rgb(216, 216, 216); stroke: rgb(0, 0, 0);"/>
  <rect x="8.092" y="145.327" width="12.182" height="13.721" style="fill: rgb(216, 216, 216); stroke: rgb(0, 0, 0);"/>
  <rect x="22.412" y="145.327" width="24.139" height="13.721" style="fill: rgb(216, 216, 216); stroke: rgb(0, 0, 0);"/>
  <rect x="48.691" y="145.327" width="24.139" height="13.721" style="fill: rgb(216, 216, 216); stroke: rgb(0, 0, 0);"/>
  <rect x="74.969" y="145.327" width="24.139" height="13.721" style="fill: rgb(216, 216, 216); stroke: rgb(0, 0, 0);"/>
  <rect x="101.246" y="145.327" width="24.139" height="13.721" style="fill: rgb(216, 216, 216); stroke: rgb(0, 0, 0);"/>
  <rect x="101.246" y="145.327" width="24.139" height="13.721" style="fill: rgb(216, 216, 216); stroke: rgb(0, 0, 0);"/>
  <rect x="127.524" y="145.327" width="24.139" height="13.721" style="fill: rgb(216, 216, 216); stroke: rgb(0, 0, 0);"/>
  <rect x="153.802" y="145.327" width="17.809" height="13.721" style="fill: rgb(216, 216, 216); stroke: rgb(0, 0, 0);"/>
  <circle style="stroke: rgb(0, 0, 0); fill: rgb(255, 255, 255);" cx="34.29" cy="119.46" r="4.001"/>
  <circle style="stroke: rgb(0, 0, 0); fill: rgb(255, 255, 255);" cx="86.884" cy="119.69" r="4.001"/>
  <circle style="stroke: rgb(0, 0, 0); fill: rgb(255, 255, 255);" cx="152.309" cy="102.974" r="4.001"/>
  <circle style="stroke: rgb(0, 0, 0); fill: rgb(255, 255, 255);" cx="151.836" cy="136.359" r="4.001"/>
  <g transform="matrix(0.354331, 0, 0, 0.354331, 2.125984, -3.354331)">
    <g>
      <g>
        <text style="fill: rgb(51, 51, 51); font-family: Arial, sans-serif; font-size: 76.1999px; font-weight: 700; text-anchor: middle; white-space: pre;" transform="matrix(1, 0, 0, 1, 172.934952, 20.012646)"><tspan x="76.088" y="87.095">Fretboard</tspan><tspan x="76.088" dy="1.1em">​</tspan><tspan>Foundation</tspan></text>
      </g>
    </g>
  </g>
</svg>