<?xml version="1.0" encoding="utf-8"?>
<svg viewBox="0 0 16 16" width="16px" height="16px" preserveAspectRatio="xMidYMid slice" xmlns="http://www.w3.org/2000/svg" xmlns:bx="https://boxy-svg.com">
  <defs>
    <bx:grid x="508.092" y="510.48" width="500" height="500.025"/>
  </defs>
  <rect x="-12.51" y="-2.347" width="48.893" height="20.588" style="fill: rgb(255, 255, 255); stroke: rgb(0, 0, 0); stroke-width: 0px;"/>
  <rect x="-7.56" width="3.548" height="3.311" style="stroke: rgb(0, 0, 0); vector-effect: non-scaling-stroke; stroke-width: 0px; fill: rgb(167, 165, 165);" y="-1.556"/>
  <rect x="-3.484" width="5.944" height="3.311" style="stroke: rgb(0, 0, 0); vector-effect: non-scaling-stroke; stroke-width: 0px; fill: rgb(167, 165, 165);" y="-1.556"/>
  <rect x="2.985" width="5.944" height="3.311" style="stroke: rgb(0, 0, 0); vector-effect: non-scaling-stroke; stroke-width: 0px; fill: rgb(167, 165, 165);" y="-1.556"/>
  <rect x="9.456" width="5.944" height="3.311" style="stroke: rgb(0, 0, 0); vector-effect: non-scaling-stroke; stroke-width: 0px; fill: rgb(167, 165, 165);" y="-1.556"/>
  <rect x="15.925" width="5.944" height="3.311" style="stroke: rgb(0, 0, 0); vector-effect: non-scaling-stroke; stroke-width: 0px; fill: rgb(167, 165, 165);" y="-1.556"/>
  <rect x="15.925" width="5.944" height="3.311" style="stroke: rgb(0, 0, 0); vector-effect: non-scaling-stroke; stroke-width: 0px; fill: rgb(167, 165, 165);" y="-1.556"/>
  <rect x="22.396" width="5.944" height="3.311" style="stroke: rgb(0, 0, 0); vector-effect: non-scaling-stroke; stroke-width: 0px; fill: rgb(167, 165, 165);" y="-1.556"/>
  <rect x="28.87" width="5.195" height="3.311" style="stroke: rgb(0, 0, 0); vector-effect: non-scaling-stroke; stroke-width: 0px; fill: rgb(167, 165, 165);" y="-1.556"/>
  <rect x="-7.657" y="2.481" width="6.667" height="3.311" style="stroke: rgb(0, 0, 0); vector-effect: non-scaling-stroke; stroke-width: 0px; fill: rgb(167, 165, 165);"/>
  <rect x="-0.463" y="2.481" width="5.944" height="3.311" style="stroke: rgb(0, 0, 0); vector-effect: non-scaling-stroke; stroke-width: 0px; fill: rgb(167, 165, 165);"/>
  <rect x="6.005" y="2.481" width="5.944" height="3.311" style="stroke: rgb(0, 0, 0); vector-effect: non-scaling-stroke; stroke-width: 0px; fill: rgb(167, 165, 165);"/>
  <rect x="12.477" y="2.481" width="5.944" height="3.311" style="stroke: rgb(0, 0, 0); vector-effect: non-scaling-stroke; stroke-width: 0px; fill: rgb(167, 165, 165);"/>
  <rect x="18.946" y="2.481" width="5.944" height="3.311" style="stroke: rgb(0, 0, 0); vector-effect: non-scaling-stroke; stroke-width: 0px; fill: rgb(167, 165, 165);"/>
  <rect x="25.417" y="2.481" width="5.944" height="3.311" style="stroke: rgb(0, 0, 0); vector-effect: non-scaling-stroke; stroke-width: 0px; fill: rgb(167, 165, 165);"/>
  <rect x="31.887" y="2.481" width="1.919" height="3.311" style="stroke: rgb(0, 0, 0); vector-effect: non-scaling-stroke; stroke-width: 0px; fill: rgb(167, 165, 165);"/>
  <rect x="-7.705" y="6.411" width="3.657" height="3.311" style="stroke: rgb(0, 0, 0); vector-effect: non-scaling-stroke; stroke-width: 0px; fill: rgb(167, 165, 165);"/>
  <rect x="-3.519" y="6.411" width="5.944" height="3.311" style="stroke: rgb(0, 0, 0); vector-effect: non-scaling-stroke; stroke-width: 0px; fill: rgb(167, 165, 165);"/>
  <rect x="2.95" y="6.411" width="5.944" height="3.311" style="stroke: rgb(0, 0, 0); vector-effect: non-scaling-stroke; stroke-width: 0px; fill: rgb(167, 165, 165);"/>
  <rect x="9.421" y="6.411" width="5.944" height="3.311" style="stroke: rgb(0, 0, 0); vector-effect: non-scaling-stroke; stroke-width: 0px; fill: rgb(167, 165, 165);"/>
  <rect x="15.892" y="6.411" width="5.944" height="3.311" style="stroke: rgb(0, 0, 0); vector-effect: non-scaling-stroke; stroke-width: 0px; fill: rgb(167, 165, 165);"/>
  <rect x="15.892" y="6.411" width="5.944" height="3.311" style="stroke: rgb(0, 0, 0); vector-effect: non-scaling-stroke; stroke-width: 0px; fill: rgb(167, 165, 165);"/>
  <rect x="22.361" y="6.411" width="5.944" height="3.311" style="stroke: rgb(0, 0, 0); vector-effect: non-scaling-stroke; stroke-width: 0px; fill: rgb(167, 165, 165);"/>
  <rect x="28.832" y="6.411" width="5.054" height="3.311" style="stroke: rgb(0, 0, 0); vector-effect: non-scaling-stroke; stroke-width: 0px; fill: rgb(167, 165, 165);"/>
  <rect x="-7.611" y="10.447" width="6.585" height="3.311" style="stroke: rgb(0, 0, 0); vector-effect: non-scaling-stroke; stroke-width: 0px; fill: rgb(167, 165, 165);"/>
  <rect x="-0.499" y="10.447" width="5.944" height="3.311" style="stroke: rgb(0, 0, 0); vector-effect: non-scaling-stroke; stroke-width: 0px; fill: rgb(167, 165, 165);"/>
  <rect x="5.972" y="10.447" width="5.944" height="3.311" style="stroke: rgb(0, 0, 0); vector-effect: non-scaling-stroke; stroke-width: 0px; fill: rgb(167, 165, 165);"/>
  <rect x="12.443" y="10.447" width="5.944" height="3.311" style="stroke: rgb(0, 0, 0); vector-effect: non-scaling-stroke; stroke-width: 0px; fill: rgb(167, 165, 165);"/>
  <rect x="18.913" y="10.447" width="5.944" height="3.311" style="stroke: rgb(0, 0, 0); vector-effect: non-scaling-stroke; stroke-width: 0px; fill: rgb(167, 165, 165);"/>
  <rect x="25.384" y="10.447" width="5.944" height="3.311" style="stroke: rgb(0, 0, 0); vector-effect: non-scaling-stroke; stroke-width: 0px; fill: rgb(167, 165, 165);"/>
  <rect x="31.854" y="10.447" width="1.986" height="3.311" style="stroke: rgb(0, 0, 0); vector-effect: non-scaling-stroke; stroke-width: 0px; fill: rgb(167, 165, 165);"/>
  <rect x="-6.983" y="14.347" width="3.001" height="3.311" style="stroke: rgb(0, 0, 0); vector-effect: non-scaling-stroke; stroke-width: 0px; fill: rgb(167, 165, 165);"/>
  <rect x="-3.459" y="14.347" width="5.944" height="3.311" style="stroke: rgb(0, 0, 0); vector-effect: non-scaling-stroke; stroke-width: 0px; fill: rgb(167, 165, 165);"/>
  <rect x="3.013" y="14.347" width="5.944" height="3.311" style="stroke: rgb(0, 0, 0); vector-effect: non-scaling-stroke; stroke-width: 0px; fill: rgb(167, 165, 165);"/>
  <rect x="9.484" y="14.347" width="5.944" height="3.311" style="stroke: rgb(0, 0, 0); vector-effect: non-scaling-stroke; stroke-width: 0px; fill: rgb(167, 165, 165);"/>
  <rect x="15.954" y="14.347" width="5.944" height="3.311" style="stroke: rgb(0, 0, 0); vector-effect: non-scaling-stroke; stroke-width: 0px; fill: rgb(167, 165, 165);"/>
  <rect x="15.954" y="14.347" width="5.944" height="3.311" style="stroke: rgb(0, 0, 0); vector-effect: non-scaling-stroke; stroke-width: 0px; fill: rgb(167, 165, 165);"/>
  <rect x="22.424" y="14.347" width="5.944" height="3.311" style="stroke: rgb(0, 0, 0); vector-effect: non-scaling-stroke; stroke-width: 0px; fill: rgb(167, 165, 165);"/>
  <rect x="28.895" y="14.347" width="4.384" height="3.311" style="stroke: rgb(0, 0, 0); vector-effect: non-scaling-stroke; stroke-width: 0px; fill: rgb(167, 165, 165);"/>
  <circle style="stroke: rgb(0, 0, 0); vector-effect: non-scaling-stroke; stroke-width: 0px; fill: rgb(255, 255, 255); paint-order: fill;" cx="-18.852" cy="16.404" r="1.476" transform="matrix(0.667927, 0, 0, 0.654501, 12.058918, -2.630428)"/>
  <circle style="stroke: rgb(0, 0, 0); vector-effect: non-scaling-stroke; stroke-width: 0px; fill: rgb(255, 255, 255);" cx="0.538" cy="16.489" r="1.476" transform="matrix(1.01626, 0, 0, 0.995833, 11.953252, -8.450441)"/>
  <circle style="stroke: rgb(0, 0, 0); vector-effect: non-scaling-stroke; stroke-width: 0px; fill: rgb(255, 255, 255);" cx="24.657" cy="10.326" r="1.476" transform="matrix(0.667927, 0, 0, 0.654501, 12.058918, -2.630428)"/>
  <circle style="stroke: rgb(0, 0, 0); vector-effect: non-scaling-stroke; stroke-width: 0px; fill: rgb(255, 255, 255);" cx="24.482" cy="22.634" r="1.476" transform="matrix(0.667927, 0, 0, 0.654501, 12.058918, -2.630428)"/>
</svg>