<?xml version="1.0" encoding="utf-8"?>
<svg height="630" viewBox="25 166.813 392.601 64.633" xmlns="http://www.w3.org/2000/svg">
  <rect x="93.952" y="189.266" width="27.558" height="9.524" style="fill: rgb(216, 216, 216); stroke: rgb(0, 0, 0);" transform="matrix(1, 0, 0, 1, 53.609979, -19.468228)"/>
  <rect x="177.562" y="169.798" width="27.558" height="9.524" style="fill: rgb(216, 216, 216); stroke: rgb(0, 0, 0);"/>
  <rect x="207.562" y="169.798" width="27.558" height="9.524" style="fill: rgb(216, 216, 216); stroke: rgb(0, 0, 0);"/>
  <rect x="237.562" y="169.798" width="27.558" height="9.524" style="fill: rgb(216, 216, 216); stroke: rgb(0, 0, 0);"/>
  <rect x="267.562" y="169.798" width="27.558" height="9.524" style="fill: rgb(216, 216, 216); stroke: rgb(0, 0, 0);"/>
  <rect x="297.562" y="169.798" width="27.558" height="9.524" style="fill: rgb(216, 216, 216); stroke: rgb(0, 0, 0);"/>
  <rect x="297.562" y="169.798" width="27.558" height="9.524" style="fill: rgb(216, 216, 216); stroke: rgb(0, 0, 0);"/>
  <rect x="117.562" y="169.798" width="27.558" height="9.524" style="fill: rgb(216, 216, 216); stroke: rgb(0, 0, 0);"/>
  <rect x="87.562" y="169.798" width="27.558" height="9.524" style="fill: rgb(216, 216, 216); stroke: rgb(0, 0, 0);"/>
  <rect x="327.562" y="169.798" width="27.558" height="9.524" style="fill: rgb(216, 216, 216); stroke: rgb(0, 0, 0);"/>
  <rect x="357.562" y="169.798" width="27.558" height="9.524" style="fill: rgb(216, 216, 216); stroke: rgb(0, 0, 0);"/>
  <rect x="387.562" y="169.798" width="27.196" height="9.524" style="fill: rgb(216, 216, 216); stroke: rgb(0, 0, 0);"/>
  <rect x="57.562" y="169.798" width="27.558" height="9.524" style="fill: rgb(216, 216, 216); stroke: rgb(0, 0, 0);"/>
  <rect x="27.562" y="169.798" width="27.558" height="9.524" style="fill: rgb(216, 216, 216); stroke: rgb(0, 0, 0);"/>
  <rect x="131.568" y="182.152" width="27.558" height="9.524" style="fill: rgb(216, 216, 216); stroke: rgb(0, 0, 0);"/>
  <rect x="161.568" y="182.152" width="27.558" height="9.524" style="fill: rgb(216, 216, 216); stroke: rgb(0, 0, 0);"/>
  <rect x="191.568" y="182.152" width="27.558" height="9.524" style="fill: rgb(216, 216, 216); stroke: rgb(0, 0, 0);"/>
  <rect x="221.568" y="182.152" width="27.558" height="9.524" style="fill: rgb(216, 216, 216); stroke: rgb(0, 0, 0);"/>
  <rect x="251.568" y="182.152" width="27.558" height="9.524" style="fill: rgb(216, 216, 216); stroke: rgb(0, 0, 0);"/>
  <rect x="281.568" y="182.152" width="27.558" height="9.524" style="fill: rgb(216, 216, 216); stroke: rgb(0, 0, 0);"/>
  <rect x="101.568" y="182.152" width="27.558" height="9.524" style="fill: rgb(216, 216, 216); stroke: rgb(0, 0, 0);"/>
  <rect x="71.568" y="182.152" width="27.558" height="9.524" style="fill: rgb(216, 216, 216); stroke: rgb(0, 0, 0);"/>
  <rect x="311.568" y="182.152" width="27.558" height="9.524" style="fill: rgb(216, 216, 216); stroke: rgb(0, 0, 0);"/>
  <rect x="341.568" y="182.152" width="27.558" height="9.524" style="fill: rgb(216, 216, 216); stroke: rgb(0, 0, 0);"/>
  <rect x="371.568" y="182.152" width="27.558" height="9.524" style="fill: rgb(216, 216, 216); stroke: rgb(0, 0, 0);"/>
  <rect x="41.568" y="182.152" width="27.558" height="9.524" style="fill: rgb(216, 216, 216); stroke: rgb(0, 0, 0);"/>
  <rect x="402" y="182.14" width="12.758" height="9.501" style="fill: rgb(216, 216, 216); stroke: rgb(0, 0, 0);"/>
  <rect x="147.401" y="194.192" width="27.558" height="9.524" style="fill: rgb(216, 216, 216); stroke: rgb(0, 0, 0);"/>
  <rect x="177.401" y="194.193" width="27.558" height="9.524" style="fill: rgb(216, 216, 216); stroke: rgb(0, 0, 0);"/>
  <rect x="207.401" y="194.193" width="27.558" height="9.524" style="fill: rgb(216, 216, 216); stroke: rgb(0, 0, 0);"/>
  <rect x="237.401" y="194.193" width="27.558" height="9.524" style="fill: rgb(216, 216, 216); stroke: rgb(0, 0, 0);"/>
  <rect x="267.401" y="194.193" width="27.558" height="9.524" style="fill: rgb(216, 216, 216); stroke: rgb(0, 0, 0);"/>
  <rect x="297.401" y="194.193" width="27.558" height="9.524" style="fill: rgb(216, 216, 216); stroke: rgb(0, 0, 0);"/>
  <rect x="297.401" y="194.193" width="27.558" height="9.524" style="fill: rgb(216, 216, 216); stroke: rgb(0, 0, 0);"/>
  <rect x="117.401" y="194.193" width="27.558" height="9.524" style="fill: rgb(216, 216, 216); stroke: rgb(0, 0, 0);"/>
  <rect x="87.401" y="194.193" width="27.558" height="9.524" style="fill: rgb(216, 216, 216); stroke: rgb(0, 0, 0);"/>
  <rect x="327.401" y="194.193" width="27.558" height="9.524" style="fill: rgb(216, 216, 216); stroke: rgb(0, 0, 0);"/>
  <rect x="357.401" y="194.193" width="27.558" height="9.524" style="fill: rgb(216, 216, 216); stroke: rgb(0, 0, 0);"/>
  <rect x="387.401" y="194.193" width="27.357" height="9.524" style="fill: rgb(216, 216, 216); stroke: rgb(0, 0, 0);"/>
  <rect x="57.401" y="194.193" width="27.558" height="9.524" style="fill: rgb(216, 216, 216); stroke: rgb(0, 0, 0);"/>
  <rect x="27.401" y="194.193" width="27.558" height="9.524" style="fill: rgb(216, 216, 216); stroke: rgb(0, 0, 0);"/>
  <rect x="131.407" y="206.547" width="27.558" height="9.524" style="fill: rgb(216, 216, 216); stroke: rgb(0, 0, 0);"/>
  <rect x="161.407" y="206.547" width="27.558" height="9.524" style="fill: rgb(216, 216, 216); stroke: rgb(0, 0, 0);"/>
  <rect x="191.407" y="206.547" width="27.558" height="9.524" style="fill: rgb(216, 216, 216); stroke: rgb(0, 0, 0);"/>
  <rect x="221.407" y="206.547" width="27.558" height="9.524" style="fill: rgb(216, 216, 216); stroke: rgb(0, 0, 0);"/>
  <rect x="251.407" y="206.547" width="27.558" height="9.524" style="fill: rgb(216, 216, 216); stroke: rgb(0, 0, 0);"/>
  <rect x="281.407" y="206.547" width="27.558" height="9.524" style="fill: rgb(216, 216, 216); stroke: rgb(0, 0, 0);"/>
  <rect x="101.407" y="206.547" width="27.558" height="9.524" style="fill: rgb(216, 216, 216); stroke: rgb(0, 0, 0);"/>
  <rect x="71.407" y="206.547" width="27.558" height="9.524" style="fill: rgb(216, 216, 216); stroke: rgb(0, 0, 0);"/>
  <rect x="311.407" y="206.547" width="27.558" height="9.524" style="fill: rgb(216, 216, 216); stroke: rgb(0, 0, 0);"/>
  <rect x="341.407" y="206.547" width="27.558" height="9.524" style="fill: rgb(216, 216, 216); stroke: rgb(0, 0, 0);"/>
  <rect x="371.407" y="206.547" width="27.558" height="9.524" style="fill: rgb(216, 216, 216); stroke: rgb(0, 0, 0);"/>
  <rect x="41.407" y="206.547" width="27.558" height="9.524" style="fill: rgb(216, 216, 216); stroke: rgb(0, 0, 0);"/>
  <rect x="27.413" y="206.547" width="11.552" height="9.598" style="fill: rgb(216, 216, 216); stroke: rgb(0, 0, 0);"/>
  <rect x="147.693" y="219.235" width="27.558" height="9.524" style="fill: rgb(216, 216, 216); stroke: rgb(0, 0, 0);"/>
  <rect x="177.693" y="219.235" width="27.558" height="9.524" style="fill: rgb(216, 216, 216); stroke: rgb(0, 0, 0);"/>
  <rect x="207.693" y="219.235" width="27.558" height="9.524" style="fill: rgb(216, 216, 216); stroke: rgb(0, 0, 0);"/>
  <rect x="237.693" y="219.235" width="27.558" height="9.524" style="fill: rgb(216, 216, 216); stroke: rgb(0, 0, 0);"/>
  <rect x="267.693" y="219.235" width="27.558" height="9.524" style="fill: rgb(216, 216, 216); stroke: rgb(0, 0, 0);"/>
  <rect x="297.693" y="219.235" width="27.558" height="9.524" style="fill: rgb(216, 216, 216); stroke: rgb(0, 0, 0);"/>
  <rect x="297.693" y="219.235" width="27.558" height="9.524" style="fill: rgb(216, 216, 216); stroke: rgb(0, 0, 0);"/>
  <rect x="117.693" y="219.235" width="27.558" height="9.524" style="fill: rgb(216, 216, 216); stroke: rgb(0, 0, 0);"/>
  <rect x="87.693" y="219.235" width="27.558" height="9.524" style="fill: rgb(216, 216, 216); stroke: rgb(0, 0, 0);"/>
  <rect x="327.693" y="219.235" width="27.558" height="9.524" style="fill: rgb(216, 216, 216); stroke: rgb(0, 0, 0);"/>
  <rect x="357.693" y="219.235" width="27.558" height="9.524" style="fill: rgb(216, 216, 216); stroke: rgb(0, 0, 0);"/>
  <rect x="387.693" y="219.235" width="27.065" height="9.524" style="fill: rgb(216, 216, 216); stroke: rgb(0, 0, 0);"/>
  <rect x="57.693" y="219.235" width="27.558" height="9.524" style="fill: rgb(216, 216, 216); stroke: rgb(0, 0, 0);"/>
  <rect x="27.693" y="219.235" width="27.558" height="9.524" style="fill: rgb(216, 216, 216); stroke: rgb(0, 0, 0);"/>
  <circle style="stroke: rgb(0, 0, 0); fill: rgb(255, 255, 255);" cx="221.172" cy="199.133" r="3.024"/>
  <circle style="stroke: rgb(0, 0, 0); fill: rgb(255, 255, 255);" cx="281.326" cy="198.947" r="3.024"/>
  <circle style="stroke: rgb(0, 0, 0); fill: rgb(255, 255, 255);" cx="160.769" cy="198.978" r="3.024"/>
  <circle style="stroke: rgb(0, 0, 0); fill: rgb(255, 255, 255);" cx="355.946" cy="211.349" r="3.024"/>
  <circle style="stroke: rgb(0, 0, 0); fill: rgb(255, 255, 255);" cx="222.172" cy="199.133" r="3.024" transform="matrix(1, 0, 0, 1, 134.518217, -12.098318)"/>
  <circle style="stroke: rgb(0, 0, 0); paint-order: fill; fill: rgb(255, 255, 255);" cx="101.021" cy="198.971" r="3.024"/>
  <rect x="27.426" y="182.043" width="11.552" height="9.598" style="fill: rgb(216, 216, 216); stroke: rgb(0, 0, 0);"/>
  <rect x="402" y="206.63" width="12.758" height="9.501" style="fill: rgb(216, 216, 216); stroke: rgb(0, 0, 0);"/>
</svg>