<?xml version="1.0" standalone="no"?>
<!DOCTYPE svg PUBLIC "-//W3C//DTD SVG 20010904//EN"
 "http://www.w3.org/TR/2001/REC-SVG-20010904/DTD/svg10.dtd">
<svg version="1.0" xmlns="http://www.w3.org/2000/svg"
 width="700.000000pt" height="700.000000pt" viewBox="0 0 700.000000 700.000000"
 preserveAspectRatio="xMidYMid meet">
<metadata>
Created by potrace 1.14, written by Peter Selinger 2001-2017
</metadata>
<g transform="translate(0.000000,700.000000) scale(0.100000,-0.100000)"
fill="#000000" stroke="none">
<path d="M0 6615 l0 -385 538 2 537 3 3 383 2 382 -540 0 -540 0 0 -385z"/>
<path d="M1310 6615 l0 -385 1298 2 1297 3 3 383 2 382 -1300 0 -1300 0 0
-385z"/>
<path d="M4140 6615 l0 -385 1300 0 1300 0 0 385 0 385 -1300 0 -1300 0 0
-385z"/>
<path d="M6970 6615 c0 -336 2 -385 15 -385 13 0 15 49 15 385 0 336 -2 385
-15 385 -13 0 -15 -49 -15 -385z"/>
<path d="M0 5190 l0 -720 1200 0 1200 0 0 720 0 720 -1200 0 -1200 0 0 -720z"/>
<path d="M2630 5190 l0 -720 1300 0 1300 0 0 720 0 720 -1300 0 -1300 0 0
-720z"/>
<path d="M5460 5190 l0 -720 770 0 770 0 0 720 0 720 -770 0 -770 0 0 -720z"/>
<path d="M0 4010 l0 -190 63 -63 c74 -72 113 -146 129 -241 22 -135 -28 -274
-132 -369 l-60 -54 0 -171 0 -172 530 0 530 0 0 725 0 725 -530 0 -530 0 0
-190z"/>
<path d="M1297 4193 c-4 -3 -7 -330 -7 -725 l0 -718 1300 0 1300 0 0 725 0
725 -1293 0 c-712 0 -1297 -3 -1300 -7z"/>
<path d="M4127 4193 c-4 -3 -7 -330 -7 -725 l0 -718 1300 0 1300 0 0 725 0
725 -1293 0 c-712 0 -1297 -3 -1300 -7z m1512 -59 c224 -57 415 -251 470 -478
17 -70 15 -223 -4 -298 -92 -356 -474 -567 -830 -458 -212 65 -384 241 -441
450 -28 103 -24 254 10 357 106 326 455 513 795 427z"/>
<path d="M6952 3473 l3 -728 23 -3 22 -3 0 730 0 731 -25 0 -25 0 2 -727z"/>
<path d="M0 1705 l0 -725 1190 0 1190 0 0 725 0 725 -1190 0 -1190 0 0 -725z"/>
<path d="M2610 1705 l0 -725 1300 0 1300 0 0 725 0 725 -1300 0 -1300 0 0
-725z"/>
<path d="M5440 1705 l0 -725 780 0 780 0 0 725 0 725 -780 0 -780 0 0 -725z"/>
<path d="M6980 365 c0 -237 4 -365 10 -365 6 0 10 128 10 365 0 237 -4 365
-10 365 -6 0 -10 -128 -10 -365z"/>
<path d="M0 360 l0 -360 545 0 545 0 0 360 0 360 -545 0 -545 0 0 -360z"/>
<path d="M1320 360 l0 -360 1300 0 1300 0 0 360 0 360 -1300 0 -1300 0 0 -360z"/>
<path d="M4150 360 l0 -360 1300 0 1300 0 0 360 0 360 -1300 0 -1300 0 0 -360z"/>
</g>
</svg>
