<svg id="diagram-new" class="fbd-diagram" xmlns="http://www.w3.org/2000/svg" width="100%" viewBox="0 0 83 374" preserveAspectRatio="xMidYMid meet" font-size="16px" data-fbd="{&quot;numStrings&quot;:4,&quot;numFrets&quot;:14,&quot;grid&quot;:[[null],[null,&quot;&quot;,{&quot;label&quot;:&quot;2&quot;,&quot;dot&quot;:true},null,null],[null,{&quot;label&quot;:&quot;♭7&quot;,&quot;dot&quot;:true},&quot;♭3&quot;,{&quot;label&quot;:&quot;5&quot;,&quot;dot&quot;:true,&quot;class&quot;:&quot;fbd-note-root&quot;},&quot;1&quot;,null],[null,null,null,&quot;♭6&quot;,null,null],[null,&quot;1&quot;,&quot;4&quot;,null,{&quot;label&quot;:&quot;2&quot;,&quot;dot&quot;:true},null],[null,null,null,{&quot;label&quot;:&quot;♭7&quot;,&quot;dot&quot;:true},&quot;♭3&quot;,null],[null,&quot;2&quot;,{&quot;label&quot;:&quot;5&quot;,&quot;dot&quot;:true,&quot;class&quot;:&quot;fbd-note-root&quot;}],[null,&quot;♭3&quot;,&quot;♭6&quot;,&quot;1&quot;,&quot;4&quot;,null],[null],[null,&quot;4&quot;,{&quot;label&quot;:&quot;♭7&quot;,&quot;dot&quot;:true},{&quot;label&quot;:&quot;2&quot;,&quot;dot&quot;:true},{&quot;label&quot;:&quot;5&quot;,&quot;dot&quot;:true,&quot;class&quot;:&quot;fbd-note-root&quot;}],[null,null,null,&quot;♭3&quot;,&quot;♭6&quot;],[null,&quot;5&quot;,&quot;1&quot;],[null,&quot;♭6&quot;,null,&quot;4&quot;,{&quot;label&quot;:&quot;♭7&quot;,&quot;dot&quot;:true}],[null,null,{&quot;label&quot;:&quot;2&quot;,&quot;dot&quot;:true}],[null,&quot;♭7&quot;,&quot;♭3&quot;,{&quot;label&quot;:&quot;5&quot;,&quot;dot&quot;:true,&quot;class&quot;:&quot;fbd-note-root&quot;},&quot;1&quot;],[null]]}"><style type="text/css">/* <![CDATA[ */
 .fbd-grid { stroke: #999; } .fbd-grid-background { fill: #fff; } .fbd-diagram { font-family: "Helvetica Neue",Helvetica,Arial,sans-serif; font-weight: 500; } .fbd-inlays { fill: #f5f5f5; stroke: #ddd; } .fbd-positions text { fill: #333; text-anchor: middle; } .fbd-positions circle + text { fill: #fff; } .fbd-dots { fill: #000; stroke: none; } .fbd-note-footer { font-size: 75%; text-anchor: middle; fill: #000; } .fbd-note-root circle { fill: green; } .fbd-note-optional circle { fill: #fff; stroke: #999; stroke-dasharray: 5,2; } .fbd-note-optional circle + text { fill: #666; } .fbd-note-chromatic circle { fill: #fcc; } .fbd-note-chromatic circle + text { fill: #000; }
/* ]]> */
</style><g class="fbd-grid"><rect class="fbd-grid-background" x="10" y="10" width="63" height="350"></rect><path class="fbd-frets" d=" M10 10 h63 M10 35 h63 M10 60 h63 M10 85 h63 M10 110 h63 M10 135 h63 M10 160 h63 M10 185 h63 M10 210 h63 M10 235 h63 M10 260 h63 M10 285 h63 M10 310 h63 M10 335 h63 M10 360 h63"></path><path class="fbd-strings" d=" M10 10 v350 M31 10 v350 M52 10 v350 M73 10 v350"></path></g><g class="fbd-positions"><g class="fbd-pos-2-1"><circle cx="31" cy="23" r="9.5"></circle><text x="31" y="28.5">2</text></g><g class="fbd-pos-1-2"><circle cx="10" cy="48" r="9.5"></circle><text font-size="70%" x="10" y="52.5">♭7</text></g><g class="fbd-pos-2-2"><text font-size="70%" x="31" y="52.5">♭3</text></g><g class="fbd-pos-3-2 fbd-note-root"><circle cx="52" cy="48" r="9.5"></circle><text x="52" y="53.5">5</text></g><g class="fbd-pos-4-2"><text x="73" y="53.5">1</text></g><g class="fbd-pos-3-3"><text font-size="70%" x="52" y="77.5">♭6</text></g><g class="fbd-pos-1-4"><text x="10" y="103.5">1</text></g><g class="fbd-pos-2-4"><text x="31" y="103.5">4</text></g><g class="fbd-pos-4-4"><circle cx="73" cy="98" r="9.5"></circle><text x="73" y="103.5">2</text></g><g class="fbd-pos-3-5"><circle cx="52" cy="123" r="9.5"></circle><text font-size="70%" x="52" y="127.5">♭7</text></g><g class="fbd-pos-4-5"><text font-size="70%" x="73" y="127.5">♭3</text></g><g class="fbd-pos-1-6"><text x="10" y="153.5">2</text></g><g class="fbd-pos-2-6 fbd-note-root"><circle cx="31" cy="148" r="9.5"></circle><text x="31" y="153.5">5</text></g><g class="fbd-pos-1-7"><text font-size="70%" x="10" y="177.5">♭3</text></g><g class="fbd-pos-2-7"><text font-size="70%" x="31" y="177.5">♭6</text></g><g class="fbd-pos-3-7"><text x="52" y="178.5">1</text></g><g class="fbd-pos-4-7"><text x="73" y="178.5">4</text></g><g class="fbd-pos-1-9"><text x="10" y="228.5">4</text></g><g class="fbd-pos-2-9"><circle cx="31" cy="223" r="9.5"></circle><text font-size="70%" x="31" y="227.5">♭7</text></g><g class="fbd-pos-3-9"><circle cx="52" cy="223" r="9.5"></circle><text x="52" y="228.5">2</text></g><g class="fbd-pos-4-9 fbd-note-root"><circle cx="73" cy="223" r="9.5"></circle><text x="73" y="228.5">5</text></g><g class="fbd-pos-3-10"><text font-size="70%" x="52" y="252.5">♭3</text></g><g class="fbd-pos-4-10"><text font-size="70%" x="73" y="252.5">♭6</text></g><g class="fbd-pos-1-11"><text x="10" y="278.5">5</text></g><g class="fbd-pos-2-11"><text x="31" y="278.5">1</text></g><g class="fbd-pos-1-12"><text font-size="70%" x="10" y="302.5">♭6</text></g><g class="fbd-pos-3-12"><text x="52" y="303.5">4</text></g><g class="fbd-pos-4-12"><circle cx="73" cy="298" r="9.5"></circle><text font-size="70%" x="73" y="302.5">♭7</text></g><g class="fbd-pos-2-13"><circle cx="31" cy="323" r="9.5"></circle><text x="31" y="328.5">2</text></g><g class="fbd-pos-1-14"><text font-size="70%" x="10" y="352.5">♭7</text></g><g class="fbd-pos-2-14"><text font-size="70%" x="31" y="352.5">♭3</text></g><g class="fbd-pos-3-14 fbd-note-root"><circle cx="52" cy="348" r="9.5"></circle><text x="52" y="353.5">5</text></g><g class="fbd-pos-4-14"><text x="73" y="353.5">1</text></g></g></svg>