<svg id="diagram-new" class="fbd-diagram" xmlns="http://www.w3.org/2000/svg" width="100%" viewBox="0 0 41 174" preserveAspectRatio="xMidYMid meet" font-size="16px" data-fbd="{&quot;numStrings&quot;:2,&quot;numFrets&quot;:6,&quot;grid&quot;:[[null,null,null,null],[null,&quot;5&quot;,{&quot;label&quot;:&quot;1&quot;,&quot;dot&quot;:true},null],[null,null,null,null],[null,&quot;6&quot;,{&quot;label&quot;:&quot;2&quot;,&quot;dot&quot;:true},null],[null,null,null,null],[null,&quot;7&quot;,{&quot;label&quot;:&quot;3&quot;,&quot;dot&quot;:true},null],[null,&quot;1&quot;,{&quot;label&quot;:&quot;4&quot;,&quot;dot&quot;:true}]]}"><style type="text/css">/* <![CDATA[ */
 .fbd-grid { stroke: #999; } .fbd-grid-background { fill: #fff; } .fbd-diagram { font-family: "Helvetica Neue",Helvetica,Arial,sans-serif; font-weight: 500; } .fbd-inlays { fill: #f5f5f5; stroke: #ddd; } .fbd-positions text { fill: #333; text-anchor: middle; } .fbd-positions circle + text { fill: #fff; } .fbd-dots { fill: #000; stroke: none; } .fbd-note-footer { font-size: 75%; text-anchor: middle; fill: #000; } .fbd-note-root circle { fill: green; } .fbd-note-optional circle { fill: #fff; stroke: #999; stroke-dasharray: 5,2; } .fbd-note-optional circle + text { fill: #666; } .fbd-note-chromatic circle { fill: #fcc; } .fbd-note-chromatic circle + text { fill: #000; }
/* ]]> */
</style><g class="fbd-grid"><rect class="fbd-grid-background" x="10" y="10" width="21" height="150"></rect><path class="fbd-frets" d=" M10 10 h21 M10 35 h21 M10 60 h21 M10 85 h21 M10 110 h21 M10 135 h21 M10 160 h21"></path><path class="fbd-strings" d=" M10 10 v150 M31 10 v150"></path></g><g class="fbd-positions"><g class="fbd-pos-1-1"><text x="10" y="28.5">5</text></g><g class="fbd-pos-2-1"><circle cx="31" cy="23" r="9.5"></circle><text x="31" y="28.5">1</text></g><g class="fbd-pos-1-3"><text x="10" y="78.5">6</text></g><g class="fbd-pos-2-3"><circle cx="31" cy="73" r="9.5"></circle><text x="31" y="78.5">2</text></g><g class="fbd-pos-1-5"><text x="10" y="128.5">7</text></g><g class="fbd-pos-2-5"><circle cx="31" cy="123" r="9.5"></circle><text x="31" y="128.5">3</text></g><g class="fbd-pos-1-6"><text x="10" y="153.5">1</text></g><g class="fbd-pos-2-6"><circle cx="31" cy="148" r="9.5"></circle><text x="31" y="153.5">4</text></g></g></svg>